<svg width="79" height="28" viewBox="0 0 79 28" fill="none" xmlns="http://www.w3.org/2000/svg">
<g clip-path="url(#clip0_305_978)">
<path fill-rule="evenodd" clip-rule="evenodd" d="M13.1201 9.96011C13.5701 9.76011 14.0201 9.34011 14.4701 9.96011C14.7601 10.1101 15.1501 10.0301 15.3901 10.3101C15.5801 10.5501 15.5501 10.8601 15.6701 11.1201C15.7201 11.3201 15.7401 11.5201 15.5901 11.7001C15.2901 11.9801 14.9401 12.0201 14.5601 11.9301C13.9301 11.7901 13.5501 12.1601 13.1301 12.5401C13.8301 13.1901 14.8101 12.7301 15.4201 13.3601C15.3401 13.9801 14.7901 13.8301 14.3101 14.0301C16.8101 14.8301 19.2301 14.9801 21.6601 14.2001C22.2301 14.0201 22.7801 13.7301 23.3201 14.2401C23.3701 14.3501 23.3801 14.4601 23.3701 14.5801C23.2301 14.9801 22.9001 15.2201 22.5401 15.2501C20.5001 15.4101 18.5401 16.1801 16.5001 16.1301C14.6301 16.0801 12.7501 16.2601 10.8901 15.9301C10.6201 15.7301 10.4101 15.4601 10.2001 15.2101C10.0501 14.7401 10.4801 14.5601 10.6701 14.2601C10.7801 14.1501 10.9101 14.0501 11.0401 13.9701C11.7201 13.5001 11.6901 12.8001 11.7201 12.0901C11.4101 12.0301 11.2701 12.4201 10.9801 12.2701C10.1601 11.4101 10.2301 11.0501 11.3501 10.4301C12.0101 10.5401 12.5601 10.2301 13.1201 9.96011Z" fill="#B7B7B7"/>
<path fill-rule="evenodd" clip-rule="evenodd" d="M44.8401 23.2299C44.7701 23.2499 44.7001 23.2599 44.6301 23.2699C44.5401 23.3299 44.4501 23.3499 44.3401 23.3199C43.2601 23.7399 42.4901 24.5699 41.6901 25.3499C41.5301 25.6499 41.2801 25.8599 41.0501 26.0999C40.6101 26.5299 40.2301 26.5599 39.8601 26.0399C39.5701 25.6299 39.1801 25.3799 38.6801 25.2899C38.5801 25.2599 38.4801 25.2299 38.3901 25.1899C37.5201 24.6299 36.8601 24.9699 36.2801 25.6899C35.7001 25.9699 35.0601 25.8599 34.4501 25.9799C33.7801 26.1099 33.7301 25.4699 33.3601 25.2399C33.0301 24.9699 32.6601 25.1399 32.3001 25.1399C31.7101 25.1299 31.1801 25.0299 31.2501 24.2299C31.8601 23.8699 32.4601 24.4499 33.0601 24.2699C33.5101 24.3499 33.6901 24.0799 33.9101 23.7399C34.6601 22.5399 35.6301 22.3999 36.6401 23.3999C36.9801 23.7299 37.2901 23.8599 37.7101 23.7999C38.0901 23.7499 38.4401 23.7899 38.8101 23.8999C40.1901 24.2999 40.7501 24.0999 41.6201 22.9399C41.8701 22.6099 42.2001 22.5099 42.5901 22.4699C43.1801 22.4099 43.7801 22.3899 44.3701 22.3199C45.2501 22.2099 44.5101 21.1699 45.1801 20.9399C45.3301 20.9699 45.4601 21.0299 45.5701 21.1299C46.0601 21.5799 46.3601 22.1099 46.1601 22.7899C45.9301 23.5399 45.2601 23.0099 44.8401 23.2299Z" fill="#6B6B6B"/>
<path fill-rule="evenodd" clip-rule="evenodd" d="M4.32013 21.64C4.77013 21.2 4.81013 20.46 5.50013 20.17C5.77013 20.05 5.65013 19.67 5.56013 19.36C5.32013 18.56 5.48013 17.8 6.02013 17.17C6.74013 16.32 6.71013 15.97 5.75013 15.42C5.56013 15.31 5.34013 15.25 5.14013 15.16C4.83013 15.03 4.29013 15.21 4.29013 14.67C4.29013 14.12 4.64013 13.79 5.21013 13.74C5.29013 13.79 5.35013 13.86 5.36013 13.95C5.33013 14.19 5.41013 14.37 5.67013 14.44C5.77013 14.48 5.85013 14.53 5.94013 14.6C6.72013 15.18 7.46013 15.79 7.24013 16.93C6.73013 17.65 6.15013 18.34 6.57013 19.33C6.93013 20.18 7.31013 20.34 8.09013 19.84C8.60013 19.51 9.07013 19.13 9.70013 19.56C9.51013 20.49 8.95013 21.12 8.13013 21.55C7.81013 21.71 7.41013 21.72 7.18013 22.05C7.02013 22.2 6.84013 22.31 6.63013 22.36C5.88013 22.2 5.35013 22.3 5.02013 23.16C4.79013 23.76 4.08013 23.85 3.46013 23.76C2.98013 23.69 2.61013 23.47 2.64013 22.89C3.11013 22.37 3.87013 22.22 4.32013 21.64Z" fill="#6B6B6B"/>
<path fill-rule="evenodd" clip-rule="evenodd" d="M41.4301 0.230031C41.5201 0.0400314 41.7001 0.0300314 41.8801 0.0500314C42.8501 -0.179969 43.7301 0.470031 44.7101 0.320031C45.8101 0.160031 46.8901 0.610031 48.0101 0.610031C48.9201 0.610031 49.5801 1.24003 50.0201 2.05003C50.3601 2.69003 50.8101 3.12003 51.6001 3.07003C52.2201 2.82003 52.8601 2.90003 53.4901 3.02003C53.6601 3.05003 53.8101 3.13003 53.9201 3.27003C54.1901 3.67003 54.5001 4.04003 55.0501 4.03003C55.1601 4.04003 55.2601 4.08003 55.3501 4.14003C55.5001 4.31003 55.6001 4.49003 55.3901 4.69003C55.1101 4.86003 54.7901 4.79003 54.5401 4.68003C53.6301 4.27003 52.7401 4.32003 51.8401 4.70003C50.7401 4.73003 50.0201 4.26003 49.3801 3.32003C48.5201 2.06003 47.3301 1.14003 45.6101 1.63003C44.8601 1.85003 44.0501 1.57003 43.3201 1.94003C43.0101 2.03003 42.7801 1.82003 42.5301 1.71003C42.3701 1.61003 42.1901 1.61003 42.0101 1.60003C41.6001 1.59003 41.1701 1.55003 40.9801 1.13003C40.7501 0.670031 41.3001 0.550031 41.4301 0.230031Z" fill="#DCDCDC"/>
<path fill-rule="evenodd" clip-rule="evenodd" d="M60.4101 20.3101C60.2601 19.5901 59.6801 19.4901 59.2201 19.7601C58.6201 20.1101 58.1601 19.9701 57.6901 19.6501C56.5201 18.8701 55.1801 18.8301 53.8501 18.7501C53.2101 18.7601 52.8901 19.2601 52.5001 19.6501C50.7401 20.7301 48.9301 20.9701 47.0401 19.9701C46.9001 19.7601 46.8801 19.5401 46.9901 19.3101C48.4301 19.5901 49.5901 18.2301 51.0701 18.6301C51.5701 18.7701 51.8701 18.3301 52.1901 18.0101C53.0901 17.3201 54.0901 17.8101 55.0501 17.7801C56.7001 18.1501 58.2201 19.1201 60.0001 18.9601C60.1101 18.9901 60.2101 19.0301 60.3101 19.0901C60.6901 19.4001 60.9501 19.7501 60.7001 20.2701C60.6101 20.3801 60.5101 20.3901 60.4101 20.3101Z" fill="#626262"/>
<path fill-rule="evenodd" clip-rule="evenodd" d="M27.06 20.79C26.08 20.79 25.28 20.48 24.39 19.98C23.29 19.36 21.9 19.24 20.58 19.2C20.33 19.19 20.05 19.14 19.83 19.03C18.56 18.36 16.93 18.59 15.91 19.65C15.66 19.91 15.44 20.11 15.04 19.98C14.47 19.79 13.9 19.74 13.29 19.85C12.86 19.93 12.67 19.65 12.87 19.22C12.58 18.78 12.46 18.33 12.8 17.86C12.89 17.8 12.99 17.78 13.09 17.79C13.54 18.22 13.57 19.17 14.54 18.98C14.64 18.97 14.75 18.98 14.85 18.99C15.34 19.03 15.86 18.8 16.02 18.46C16.71 17 17.85 17.38 18.89 17.74C20.28 18.21 21.67 18.54 23.13 18.67C23.81 18.73 24.44 19.05 24.94 19.5C25.4 19.91 25.85 19.95 26.39 19.82C26.99 19.9 27.45 20.06 27.06 20.79Z" fill="#383838"/>
<path fill-rule="evenodd" clip-rule="evenodd" d="M51.6101 3.47006C51.3301 3.68006 51.0901 3.86006 50.8001 3.42006C50.4501 2.90006 50.0401 2.43006 49.6301 1.96006C48.9501 1.18006 48.1701 0.770063 47.0401 0.690063C45.3201 0.570063 43.5501 0.650063 41.8801 0.0500628C43.4701 -0.109937 45.0401 0.180063 46.6201 0.260063C47.0801 0.280063 47.5401 0.430063 48.0401 0.440063C49.0801 0.450063 49.9201 0.880063 50.2001 2.00006C50.3401 2.54006 50.6801 2.78006 51.1901 2.65006C52.6801 2.26006 53.8801 2.67006 54.8201 3.87006C54.2801 4.25006 54.1001 3.75006 53.8201 3.48006C53.7501 3.41006 53.6801 3.33006 53.6101 3.26006C52.9201 3.12006 52.2201 2.82006 51.6101 3.47006Z" fill="#ACACAC"/>
<path fill-rule="evenodd" clip-rule="evenodd" d="M70.2801 18.31C69.2001 18.58 69.4901 19.11 70.0201 19.69C70.3801 20.51 69.6401 20.71 69.2301 21.1C69.1301 21.14 69.0201 21.17 68.9101 21.17C67.9001 21.12 67.6001 20.5 67.6501 19.6C67.6701 19.31 67.7701 19.02 67.7101 18.72C67.7701 18.26 68.1301 18.12 68.5001 18.05C68.9901 17.96 69.2901 17.68 69.4901 17.24C69.6701 16.91 69.8501 16.59 70.1201 16.32C70.2001 16.25 70.2901 16.19 70.3901 16.13C71.5901 15.18 72.0901 15.18 73.4601 16.18C73.5001 16.28 73.5001 16.39 73.4501 16.49C73.3501 16.55 73.2401 16.6 73.1301 16.58C71.7201 16.39 70.8501 17.1 70.2801 18.31Z" fill="#7D7D7D"/>
<path fill-rule="evenodd" clip-rule="evenodd" d="M33.5801 25.0801C34.3001 26.4201 35.3501 25.5901 36.2901 25.5001C37.1401 24.7101 37.7701 24.5901 38.5401 25.0601C38.6101 25.1201 38.6601 25.1901 38.6701 25.2901C38.6601 25.3801 38.6101 25.4601 38.5401 25.5201C37.5201 25.7101 36.5101 25.8901 35.4901 26.0901C34.7101 26.2401 33.9501 26.4001 33.3901 25.5801C33.2801 25.4201 32.9101 25.2401 32.8201 25.4701C32.4501 26.4501 31.5901 26.0901 30.9201 26.2401C30.7801 26.2701 30.6301 26.3301 30.5001 26.3801C28.9801 27.0101 28.9801 27.0101 28.1901 25.5101C28.8601 25.0901 29.4701 25.8601 30.1401 25.6201C31.2301 25.0301 32.3501 24.7001 33.5801 25.0801Z" fill="#343434"/>
<path fill-rule="evenodd" clip-rule="evenodd" d="M73.4101 16.53C73.4101 16.45 73.4101 16.37 73.4201 16.29C73.7701 15.91 74.4001 16.23 74.7201 15.78C74.4601 15.57 74.0901 15.48 73.9101 15.2C73.4101 14.41 72.8701 14.07 71.9701 14.68C71.6401 14.9 71.1801 14.74 70.8501 14.43C70.6601 14.21 70.5801 13.96 70.7101 13.68C70.8801 13.4 71.0501 13.13 71.3601 12.97C71.8701 13.01 72.2701 12.54 72.8001 12.66C72.9801 12.69 73.2901 12.68 73.3201 12.76C73.7801 14.15 75.1101 14.75 75.9901 15.75C76.0301 15.79 75.9401 15.95 75.9101 16.05C75.7201 17.27 75.2901 17.52 74.3101 16.99C74.0201 16.85 73.6501 17.04 73.4001 16.75C73.3301 16.69 73.3101 16.64 73.3401 16.59C73.3501 16.55 73.3801 16.53 73.4101 16.53Z" fill="#848484"/>
<path fill-rule="evenodd" clip-rule="evenodd" d="M5.2402 14.03C5.2302 13.94 5.2102 13.84 5.2002 13.75C6.1302 13.06 7.2202 12.87 8.3202 12.75C8.9502 12.68 9.2302 12.5 8.7702 11.87C8.4102 11.39 8.4802 11.07 9.1602 11.25C9.7302 11.4 9.7602 11.11 9.7902 10.67C9.8502 9.83003 10.3202 9.48003 11.0702 9.94003C11.7902 10.38 12.4402 9.81003 13.1202 9.96003C12.6602 10.34 12.3502 11.05 11.5502 10.64C10.8502 10.64 10.5002 11.06 10.2902 11.67C9.9002 12.79 9.2802 13.59 7.9002 13.57C7.2502 13.56 6.5702 13.75 5.9602 14.07C5.7202 14.2 5.4702 14.24 5.2402 14.03Z" fill="#949494"/>
<path fill-rule="evenodd" clip-rule="evenodd" d="M10.4302 23.2701C9.13017 23.8701 7.71017 23.4001 6.38017 23.7201C6.14017 23.4701 6.19017 23.1601 6.17017 22.8601C6.19017 22.7601 6.23017 22.6701 6.29017 22.5801C6.54017 22.3801 6.87017 22.4501 7.15017 22.3601C7.85017 22.3501 8.24017 21.9101 8.53017 21.3601C8.99017 21.2501 9.09017 20.5501 9.68017 20.6501C10.2402 20.8401 10.1502 21.4101 10.3602 21.8001C10.4002 21.8901 10.4302 21.9901 10.4502 22.0901C10.4902 22.3501 10.4902 22.6501 10.2902 22.8101C9.87017 23.1401 10.4202 23.1101 10.4302 23.2701Z" fill="#151515"/>
<path fill-rule="evenodd" clip-rule="evenodd" d="M28.4901 3.45993C29.1201 2.69993 30.0601 2.75993 30.9001 2.54993C31.5101 2.37993 32.1101 2.16993 32.7201 2.51993C34.1501 2.55993 35.6201 2.38993 36.8101 3.46993C37.2001 3.82993 37.3201 3.12993 37.6501 3.20993C38.7201 3.41993 39.7701 3.42993 40.7901 2.97993C41.1901 2.97993 41.5701 3.03993 41.5701 3.54993C41.5701 3.96993 41.2801 4.22993 40.9101 4.34993C40.4101 4.51993 39.8901 4.44993 39.3701 4.41993C38.7101 4.21993 38.0601 3.99993 37.3201 4.19993C36.5401 4.39993 35.8801 3.96993 35.2301 3.59993C33.4101 2.80993 31.6101 3.09993 29.8001 3.63993C29.5501 3.70993 29.3401 3.88993 29.0601 3.86993C28.7901 3.83993 28.6101 3.69993 28.4901 3.45993Z" fill="#AEAEAE"/>
<path fill-rule="evenodd" clip-rule="evenodd" d="M4.32008 21.6399C4.15008 22.4799 3.58008 22.8099 2.77008 22.7999C2.17008 23.3699 3.15008 23.6499 3.01008 24.1399C2.35008 24.4499 1.77008 24.4799 1.42008 23.6999C1.17008 23.6899 0.920081 23.6799 0.740081 23.8999C0.260081 23.9399 -0.129919 23.8899 0.060081 23.2399C0.770081 22.1599 0.770081 22.1799 2.32008 22.3399C2.73008 22.3799 3.19008 22.4699 3.33008 21.8099C3.47008 21.1399 3.99008 21.7599 4.32008 21.6399Z" fill="#3C3C3C"/>
<path fill-rule="evenodd" clip-rule="evenodd" d="M41.4301 0.22998C41.0201 0.87998 40.9801 1.30998 41.9701 1.21998C42.2401 1.19998 42.5301 1.35998 42.8101 1.42998C43.1401 2.10998 43.0001 2.48998 42.1701 2.49998C41.3701 2.50998 40.6701 2.86998 39.9601 3.20998C39.2501 3.14998 38.9101 2.82998 39.1801 2.08998C39.5001 0.94998 40.7401 0.90998 41.4301 0.22998Z" fill="#B5B5B5"/>
<path fill-rule="evenodd" clip-rule="evenodd" d="M44.8401 23.2301C46.2801 22.7301 46.2901 22.6201 45.0901 20.9901C44.7601 20.9301 44.6301 20.6901 44.5301 20.4101C44.4901 20.0801 44.3101 19.7601 44.4201 19.4101C44.5101 19.1201 44.7101 18.9401 45.0001 18.8401C45.2201 18.7901 45.4301 18.8301 45.6001 18.9901C45.8501 19.3601 46.2101 19.6401 46.4601 20.0201C46.6401 20.3101 46.7401 20.6301 46.9201 20.9201C47.0801 21.2501 47.7201 21.1701 47.6001 21.7301C47.1701 22.0101 46.6601 22.2501 46.5001 22.7601C46.1701 23.7901 45.5601 23.6601 44.8401 23.2301Z" fill="#4B4B4B"/>
<path fill-rule="evenodd" clip-rule="evenodd" d="M47.59 21.72C47.32 21.28 46.71 21.64 46.42 21.23C46.85 20.96 46.85 20.49 46.93 20.06C46.97 19.96 47.04 19.89 47.13 19.84C47.93 20 48.72 20.19 49.53 20.3C50.12 20.38 50.71 20.4 51.24 19.98C51.6 19.69 52.04 19.59 52.51 19.65C51.91 20.53 50.92 20.71 50.01 20.86C49.33 20.97 48.66 20.89 48.25 21.62C48.16 21.74 47.81 21.69 47.59 21.72Z" fill="#333333"/>
<path fill-rule="evenodd" clip-rule="evenodd" d="M38.5401 25.52C38.5401 25.44 38.5501 25.36 38.5501 25.28C38.8601 25.17 39.0201 25.39 39.2101 25.56C40.3801 26.64 40.3801 26.64 41.4301 25.45C41.6301 25.09 41.8101 24.76 42.3501 24.78C43.1601 24.81 43.4201 24.49 42.6101 23.7C43.3901 23.78 43.7901 23.21 44.4101 23.23C44.4801 23.25 44.5501 23.27 44.6301 23.29C44.5201 23.39 44.3001 23.53 44.3201 23.59C44.7201 25.05 43.8401 25.31 42.6901 25.49C41.8701 25.61 41.5501 26.38 41.2201 27.05C40.2301 27.1 39.2101 27.31 38.3301 26.61C38.4001 26.24 38.4701 25.88 38.5401 25.52Z" fill="#373737"/>
<path fill-rule="evenodd" clip-rule="evenodd" d="M55.1901 3.90994C56.7201 3.75994 58.2501 3.56994 59.4701 4.83994C59.6201 4.96994 59.9401 4.82994 59.9701 5.14994C58.8201 6.17994 58.2001 6.25994 57.1301 5.33994C56.5401 4.82994 55.7101 4.73994 55.2001 4.11994C55.1101 4.07994 55.0701 4.03994 55.1001 3.98994C55.1401 3.93994 55.1601 3.90994 55.1901 3.90994Z" fill="#828282"/>
<path fill-rule="evenodd" clip-rule="evenodd" d="M63.7201 6.85013C64.3701 8.12013 65.2701 9.13013 66.5101 9.87013C66.8601 10.0801 67.2601 10.3701 67.3701 10.8601C67.4201 10.9201 67.4401 10.9801 67.4401 11.0401C67.4301 11.1001 67.4201 11.1401 67.4101 11.1401C67.3201 11.2001 67.2301 11.2301 67.1301 11.2201C66.7001 11.1001 66.3901 10.7201 65.9201 10.7001C65.8201 10.6701 65.7301 10.6301 65.6401 10.5801C65.1401 10.1801 64.7501 9.64013 63.9901 9.58013C63.5501 9.55013 63.4501 9.03013 63.2601 8.68013C63.1701 8.03013 62.7001 7.41013 63.1201 6.73013C63.3501 6.63013 63.5501 6.68013 63.7201 6.85013Z" fill="#A1A1A1"/>
<path fill-rule="evenodd" clip-rule="evenodd" d="M28.49 3.45996C28.61 3.53996 28.74 3.60996 28.86 3.68996C29.19 3.75996 28.06 4.29996 29.03 4.18996C29.39 4.14996 29.61 4.45996 29.83 4.71996C30.08 5.03996 30.28 5.39996 30.79 5.34996C31.17 5.31996 31.45 5.52996 31.46 5.91996C31.48 6.36996 31.13 6.66996 30.76 6.60996C30.05 6.49996 29.29 6.77996 28.62 6.34996C28.41 6.17996 28.36 5.91996 28.21 5.70996C28.06 5.40996 27.67 5.31996 27.57 4.97996C26.86 3.85996 28.27 4.02996 28.49 3.45996Z" fill="#BEBEBE"/>
<path fill-rule="evenodd" clip-rule="evenodd" d="M1.42017 23.71C1.88017 24.2 2.40017 24.36 3.00017 23.94C4.24017 23.92 5.15017 22.94 6.34017 22.77C6.55017 23.08 6.56017 23.39 6.38017 23.71C5.06017 24.93 3.59017 25.07 1.96017 24.42C1.57017 24.27 1.42017 24.08 1.42017 23.71Z" fill="#292929"/>
<path fill-rule="evenodd" clip-rule="evenodd" d="M9.74004 20.7699C9.25004 20.7999 9.15004 21.4899 8.62004 21.4499C8.26004 21.8999 7.89004 22.3299 7.22004 22.0799C7.12004 22.0199 7.06004 21.9299 7.04004 21.8199C7.06004 21.7099 7.07004 21.5099 7.09004 21.5099C8.45004 21.5499 8.77004 20.1299 9.74004 19.6399C9.77004 19.5999 9.79004 19.5599 9.82004 19.5199C10.04 19.3299 10.35 19.3199 10.57 19.1499C10.98 18.8999 10.82 18.3299 11.2 18.0599C11.3 17.9999 11.4 17.9699 11.51 17.9799C11.62 18.0199 11.72 18.0799 11.8 18.1599C12.28 18.6199 12.18 19.1799 12.06 19.7199C12 19.9899 11.77 20.0199 11.54 19.8799C11.25 19.8799 10.96 19.8899 10.67 19.8899C10.38 20.2099 10.28 20.7299 9.74004 20.7699Z" fill="#4A4A4A"/>
<path fill-rule="evenodd" clip-rule="evenodd" d="M75.9401 16.25C76.4901 17.28 77.5301 17.91 78.1901 18.85C78.3601 19.09 78.7201 19.27 78.5201 19.57C78.2301 20.01 78.0601 19.47 77.8301 19.39C77.2001 19.17 76.7701 18.85 76.4701 18.11C75.9901 16.94 75.4701 18.07 74.9701 18.29C74.3801 17.89 74.3401 17.5 74.9701 17.3C75.5801 17.12 75.7001 16.67 75.9401 16.25Z" fill="#1B1B1B"/>
<path fill-rule="evenodd" clip-rule="evenodd" d="M33.58 25.08C32.59 25.04 31.61 24.93 30.84 25.8C30.69 25.97 30.29 25.92 30.01 25.97C30.04 25.55 30.12 25.12 29.53 24.98C29.29 24.92 29.08 24.75 29.02 24.47C29.11 24.07 29.33 23.69 29.09 23.27C29.09 23.2 29.09 23.14 29.1 23.07C29 22.98 29 22.88 29.09 22.78C29.87 23.21 30.88 23.26 31.36 24.17C31.42 24.77 31.84 24.83 32.32 24.85C32.74 24.85 33.22 24.68 33.58 25.08Z" fill="#4F4F4F"/>
<path fill-rule="evenodd" clip-rule="evenodd" d="M29.0901 24.39C29.3501 24.51 29.6101 24.64 29.8701 24.76C30.1901 24.9 30.6901 24.87 30.7501 25.3C30.8201 25.79 30.1701 25.65 30.0001 25.97C29.2401 26.43 28.8601 25.43 28.2001 25.51C28.1501 25.48 28.1001 25.46 28.0401 25.43C27.6401 25.11 27.6801 24.76 27.9601 24.39C28.1101 24.3 28.2501 24.22 28.4001 24.13C28.7201 23.99 28.9601 24.05 29.0901 24.39Z" fill="#6D6D6D"/>
<path fill-rule="evenodd" clip-rule="evenodd" d="M29.1101 22.74C29.1001 22.84 29.1001 22.95 29.0901 23.05C28.8001 22.81 28.5101 22.57 28.2301 22.32C27.9201 21.95 27.5501 21.64 27.2901 21.23C27.2201 21.08 27.1401 20.93 27.0701 20.77C27.1501 20.05 26.6701 20.07 26.1801 20.1C26.1101 20 26.0901 19.88 26.1301 19.76C26.9301 18.78 27.7601 18.82 28.1901 19.94C28.4101 20.52 28.8101 20.94 29.0701 21.46C29.2401 21.86 29.4201 22.31 29.1101 22.74Z" fill="#5E5E5E"/>
<path fill-rule="evenodd" clip-rule="evenodd" d="M73.41 16.5301C73.4 16.6001 73.39 16.6801 73.38 16.7501C72.66 16.8501 72.06 17.1701 71.61 17.7401C71.26 18.1701 70.84 18.4001 70.28 18.3101C70.32 17.5001 70.53 16.7401 71.28 16.3301C71.99 15.9501 72.68 16.6201 73.41 16.5301Z" fill="#2E2E2E"/>
<path fill-rule="evenodd" clip-rule="evenodd" d="M10.6402 21.68C11.4802 22.25 12.1202 21.15 12.9302 21.4C13.0402 21.43 13.1902 21.33 13.5002 21.25C13.0702 21.86 12.6702 22.17 12.0702 22.12C12.0702 22.24 12.0502 22.31 12.0702 22.38C12.2202 22.81 13.1102 22.73 12.8902 23.24C12.6702 23.75 12.2702 22.85 11.8502 23.12C11.5302 23.33 11.2102 23.06 10.8802 23.06C10.2302 22.93 10.5402 22.23 10.1902 21.92C10.1902 21.53 10.3802 21.53 10.6402 21.68Z" fill="#131313"/>
<path fill-rule="evenodd" clip-rule="evenodd" d="M18.9501 8.80994C20.0001 8.09994 21.1101 7.71994 22.4301 7.83994C23.2001 7.90994 24.0301 8.01994 24.8101 7.71994C24.9401 7.63994 25.0401 7.66994 25.1201 7.78994C25.2301 8.51994 24.7501 8.63994 24.2101 8.69994C24.0901 8.69994 23.9601 8.68994 23.8401 8.65994C22.5701 8.40994 21.3601 8.67994 20.1901 9.11994C19.7501 9.28994 19.3701 9.45994 18.9501 9.13994C18.8701 9.03994 18.8701 8.92994 18.9501 8.80994Z" fill="#B4B4B4"/>
<path fill-rule="evenodd" clip-rule="evenodd" d="M75.94 16.25C75.94 16.87 75.89 17.3901 75.08 17.5201C74.74 17.5701 74.41 17.96 74.97 18.3C74.44 18.8 74.44 18.8 73.33 19.07C73.04 18.09 74.51 17.92 74.29 16.99C75.13 17.21 75.58 16.74 75.89 16.05C75.92 16.12 75.94 16.18 75.94 16.25Z" fill="#363636"/>
<path fill-rule="evenodd" clip-rule="evenodd" d="M67.3201 11.1201C67.3401 11.0301 67.3501 10.9401 67.3701 10.8501C68.6301 11.7101 70.0401 12.2401 71.4701 12.6601C71.7901 12.7501 72.3301 12.2101 72.8001 12.6601C72.7001 12.7001 72.5401 12.7101 72.5001 12.7801C72.3201 13.1601 72.1001 13.2501 71.8201 13.0801C71.7201 13.0201 71.5301 13.1101 71.3901 13.1301C71.1801 13.2201 70.9701 13.2201 70.7601 13.1801C70.7101 13.1701 70.6501 13.1501 70.6001 13.1401C70.5501 13.1201 70.5001 13.1001 70.4501 13.0801C69.3701 12.9601 68.6301 12.0301 67.5701 11.8301C67.2901 11.7901 67.1101 11.4501 67.3201 11.1201Z" fill="#7F7F7F"/>
<path fill-rule="evenodd" clip-rule="evenodd" d="M63.7201 6.85009C63.5101 6.84009 63.2901 6.83009 63.0801 6.83009C62.7101 6.85009 62.3001 6.71009 62.2101 6.42009C61.8701 5.22009 60.8501 5.28009 59.9601 5.08009C59.8001 5.00009 59.6401 4.93009 59.4701 4.86009C59.9001 4.79009 60.2201 4.48009 60.6801 4.39009C61.7801 4.17009 62.4301 4.28009 62.4501 5.62009C62.4701 6.30009 63.5501 6.16009 63.7201 6.85009Z" fill="#6C6C6C"/>
<path fill-rule="evenodd" clip-rule="evenodd" d="M15.36 10.4399C15 10.3899 14.68 10.2799 14.46 9.95994C15.22 9.52994 16.02 9.20994 16.92 9.26994C17.14 9.43994 17.17 9.66994 17.13 9.91994C16.8 10.4899 16.46 11.0599 15.67 10.9999C15.41 10.9099 15.47 10.6299 15.36 10.4399Z" fill="#8C8C8C"/>
<path fill-rule="evenodd" clip-rule="evenodd" d="M11.54 19.8901C12.15 19.6901 12.1 19.2401 11.84 18.8501C11.67 18.6001 11.52 18.3701 11.52 18.0701C11.53 17.5101 11.94 17.4401 12.36 17.3601C12.54 17.3601 12.7 17.4101 12.85 17.5101C12.94 17.6001 12.97 17.7001 12.92 17.8201C12.91 18.2801 12.9 18.7401 12.88 19.2001C12.49 19.1801 12.28 19.3301 12.19 19.7401C12.11 20.1501 11.83 20.1501 11.54 19.8901Z" fill="#1E1E1E"/>
<path fill-rule="evenodd" clip-rule="evenodd" d="M65.0801 19.47C64.3501 19.56 63.1901 18.51 63.0801 20.29C63.0601 20.62 62.4801 20.91 62.1601 21.22C62.1201 21.18 62.0901 21.15 62.0501 21.11C61.8601 20.72 62.1101 20.43 62.2701 20.13C62.3701 19.64 62.3701 19.11 62.8001 18.76C63.1201 18.55 63.1601 18.01 63.6601 18.01C64.0101 18.62 64.9101 18.51 65.2001 19.19C65.2001 19.3 65.1601 19.39 65.0801 19.47Z" fill="#3D3D3D"/>
<path fill-rule="evenodd" clip-rule="evenodd" d="M38.3401 26.6001C39.3001 26.7501 40.2601 26.8901 41.2301 27.0401C40.8001 27.3801 40.1401 27.2401 39.7901 27.8401C39.6201 28.1401 39.2501 27.8101 39.0601 27.5801C38.8001 27.2701 38.5801 26.9301 38.3401 26.6001Z" fill="#151515"/>
<path fill-rule="evenodd" clip-rule="evenodd" d="M25.0601 7.74998C24.9801 7.73998 24.8901 7.73998 24.8101 7.72998C24.9801 6.84998 25.1301 5.96998 26.4001 6.33998C26.7701 6.44998 27.0001 6.09998 27.2501 5.88998C27.5401 5.48998 27.9201 5.33998 28.4101 5.47998C28.6601 5.63998 28.6501 5.88998 28.6301 6.13998C28.5801 6.22998 28.5101 6.30998 28.4101 6.36998C27.5701 6.55998 26.7801 6.89998 25.9301 7.04998C25.6001 7.22998 25.4901 7.67998 25.0601 7.74998Z" fill="#9C9C9C"/>
<path fill-rule="evenodd" clip-rule="evenodd" d="M10.64 21.6799C10.49 21.7599 10.34 21.8299 10.19 21.9099C9.41999 21.7799 10.18 21.0299 9.73999 20.7699C9.84999 20.2699 10.29 20.1199 10.67 19.9099C10.69 20.4999 11.09 21.0999 10.64 21.6799Z" fill="#242424"/>
<path fill-rule="evenodd" clip-rule="evenodd" d="M39.2 2.1001C39.23 2.6801 39.4 3.1201 40.11 3.0301C40.3 3.0101 40.47 3.0501 40.57 3.2401C40.62 3.6601 40.34 3.8001 40.03 3.7101C39.25 3.4901 38.4 3.6301 37.66 3.2301C37.8 3.2301 37.95 3.2401 38.09 3.2401C38.58 3.2401 39.24 3.4201 38.88 2.5001C38.84 2.4101 39.08 2.2301 39.2 2.1001Z" fill="#454545"/>
<path fill-rule="evenodd" clip-rule="evenodd" d="M70.2801 21.46C70.3201 22.04 70.2601 22.39 69.4901 22.18C68.8201 22 67.8901 22.57 67.5601 21.47C67.7501 21.2 68.0301 21.17 68.3201 21.19C68.9501 21.43 69.6201 21.42 70.2801 21.46Z" fill="#282828"/>
<path fill-rule="evenodd" clip-rule="evenodd" d="M70.2801 21.4601C69.6801 22.1801 69.0701 21.7401 68.4601 21.4701C68.4701 21.4301 68.4801 21.3801 68.4901 21.3401C68.5801 21.1701 68.7301 21.0701 68.9201 21.0201C68.9901 21.0101 69.0601 21.0001 69.1301 21.0001C69.8001 20.9301 70.0001 20.3801 70.2601 19.8901C70.8001 20.4101 70.6801 20.9301 70.2801 21.4601Z" fill="#434343"/>
<path fill-rule="evenodd" clip-rule="evenodd" d="M70.2701 19.8899C70.2301 21.1899 69.9401 21.48 69.1401 21C69.2501 20.44 70.0001 20.32 70.0301 19.7C70.1101 19.76 70.1901 19.8199 70.2701 19.8899Z" fill="#575757"/>
<path fill-rule="evenodd" clip-rule="evenodd" d="M16.9302 9.96995C16.9302 9.73995 16.9302 9.49995 16.9202 9.26995C17.4502 8.46995 18.2502 8.87995 18.9402 8.80995C18.9502 8.89995 18.9502 8.98995 18.9602 9.07995C18.9102 9.30995 18.7602 9.43995 18.5602 9.53995C18.0902 9.66995 17.5602 9.58995 17.2002 10.0399C17.1102 10.0599 17.0202 10.0399 16.9302 9.96995Z" fill="#A7A7A7"/>
<path fill-rule="evenodd" clip-rule="evenodd" d="M10.1902 21.9001C10.6902 22.1201 10.6202 22.6801 10.8802 23.0401C10.7302 23.1201 10.5802 23.1901 10.4302 23.2701C10.2202 23.2601 10.0102 23.2501 9.66016 23.2301C9.94016 22.7701 10.3402 22.4201 10.1902 21.9001Z" fill="#242424"/>
<path fill-rule="evenodd" clip-rule="evenodd" d="M65.0801 19.4701C65.0901 19.3801 65.0901 19.2801 65.1001 19.1901C65.1901 19.1301 65.2901 19.1001 65.4001 19.0901C66.1501 19.1201 66.3101 19.7501 66.6001 20.2501C66.6601 20.4101 66.6701 20.5701 66.6301 20.7301C66.5901 20.8401 66.5301 20.9201 66.4401 20.9901C65.8801 20.5901 65.7201 19.8101 65.0801 19.4701Z" fill="#434343"/>
<path fill-rule="evenodd" clip-rule="evenodd" d="M60.41 20.3101C60.47 20.3101 60.54 20.3201 60.6 20.3301C60.74 20.3301 60.86 20.3901 60.96 20.4801C61.09 20.6001 61.23 20.7201 61.38 20.8101C61.63 20.9501 61.95 20.9701 62.15 21.2101L62.17 21.2201C61.05 21.8701 60.74 21.7101 60.41 20.3101Z" fill="#3D3D3D"/>
<path fill-rule="evenodd" clip-rule="evenodd" d="M28.4201 5.47997C28.1401 5.90997 27.6301 5.68997 27.2601 5.88997C27.3601 5.58997 27.4601 5.28997 27.5601 4.98997C27.9801 4.91997 28.2401 5.12997 28.4201 5.47997Z" fill="#444444"/>
<path fill-rule="evenodd" clip-rule="evenodd" d="M29.09 24.39C28.86 24.3 28.63 24.21 28.41 24.12C28.76 23.93 29 23.65 29.09 23.26C29.38 23.63 29.93 24.01 29.09 24.39Z" fill="#303030"/>
<path fill-rule="evenodd" clip-rule="evenodd" d="M32.72 2.53005C32.11 2.44005 31.51 2.76005 30.9 2.56005C31.5 2.11005 32.1 1.67005 32.72 2.53005Z" fill="#5D5D5D"/>
<path fill-rule="evenodd" clip-rule="evenodd" d="M66.4501 21C66.4601 20.92 66.4601 20.83 66.4701 20.75C67.2901 20.53 67.9701 20.74 68.5001 21.42L68.4701 21.46C68.1701 21.46 67.8701 21.46 67.5601 21.46C67.1601 21.39 66.7201 21.4 66.4501 21Z" fill="#434343"/>
<path fill-rule="evenodd" clip-rule="evenodd" d="M27.9701 24.3801C28.0001 24.7301 28.0201 25.0801 28.0501 25.4201C27.6301 25.3501 27.3401 25.1201 27.3601 24.7001C27.3701 24.3501 27.7201 24.4101 27.9701 24.3801Z" fill="#343434"/>
<path fill-rule="evenodd" clip-rule="evenodd" d="M52.4901 19.6501C52.7101 19.0101 53.1001 18.6101 53.8401 18.7501C53.3901 19.0501 52.9401 19.3501 52.4901 19.6501Z" fill="#333333"/>
<path fill-rule="evenodd" clip-rule="evenodd" d="M27.28 21.24C27.75 21.47 28.11 21.79 28.22 22.33C27.78 22.08 27.28 21.88 27.28 21.24Z" fill="#2D2D2D"/>
<path fill-rule="evenodd" clip-rule="evenodd" d="M55.1901 3.90997C55.2001 3.97997 55.2101 4.04997 55.2101 4.10997C54.6501 4.10997 54.0001 4.29997 53.8301 3.46997C54.1701 3.57997 54.4001 3.96997 54.8301 3.85997C54.9501 3.87997 55.0701 3.89997 55.1901 3.90997Z" fill="#BFBFBF"/>
<path fill-rule="evenodd" clip-rule="evenodd" d="M72.6401 18.3C72.5001 18.33 72.3801 18.38 72.3101 18.35C72.1701 18.29 72.1001 18.14 72.2101 18C72.2501 17.95 72.4201 17.95 72.4901 17.99C72.5601 18.04 72.5701 18.17 72.6401 18.3Z" fill="#1C1C1C"/>
<path fill-rule="evenodd" clip-rule="evenodd" d="M10.8702 15.6101C11.5402 15.8501 12.3102 15.7901 12.9302 15.7501C14.7102 15.6301 16.5102 16.1801 18.2502 15.6101C19.5702 15.1801 20.9202 15.0901 22.2802 15.0001C22.6502 14.9801 22.9902 14.7701 23.2502 14.4801C23.9802 14.0301 24.7302 14.3101 25.3702 14.6101C26.0802 14.9401 26.7702 15.0901 27.5302 15.0601C28.3402 15.0201 29.1202 15.1501 29.6802 15.8001C30.1102 16.3101 30.7002 16.1601 31.2402 16.2601C32.0802 16.4201 33.0602 16.2001 33.6202 17.1401C33.3402 17.6101 32.7702 17.4801 32.3902 17.7301C31.3202 17.9101 30.3002 18.3101 29.2202 18.4501C28.9902 18.4001 28.8402 18.2501 28.7302 18.0501C28.6002 17.7401 28.6802 17.3901 28.5802 17.0701C28.5302 16.8401 28.4202 16.6901 28.1602 16.6901C27.5502 16.6501 27.2202 17.0401 26.9202 17.4901C26.8602 17.5801 26.8002 17.6601 26.7202 17.7301C25.8302 18.3001 24.7702 18.2501 24.0602 17.6201C23.7602 17.3501 23.7802 17.0501 23.8302 16.7001C23.9302 15.9301 23.6602 15.5701 22.8202 15.7501C22.1302 15.9001 21.4202 15.8901 20.8002 16.3201C20.5902 16.4701 20.3102 16.5301 20.0502 16.5101C18.3202 16.3301 16.6202 16.8201 14.8902 16.6601C13.8102 16.8401 12.7302 16.9401 11.6602 16.6201C10.6702 16.8101 9.7602 16.8001 9.2002 15.7601C9.7102 15.0301 10.2902 15.3301 10.8702 15.6101Z" fill="#9F9F9F"/>
<path fill-rule="evenodd" clip-rule="evenodd" d="M33.6 17.1801C32.58 16.7201 31.5 16.5601 30.39 16.6601C29.94 16.7001 29.62 16.5901 29.46 16.2401C29.07 15.3801 28.29 15.3201 27.59 15.4501C26.9 15.5901 26.31 15.4801 25.78 15.1801C24.98 14.7301 24.12 14.6301 23.25 14.4901C23.25 14.4101 23.25 14.3401 23.25 14.2601C23.31 14.1601 23.39 14.0801 23.49 14.0301C25.23 13.9301 26.96 13.9301 28.69 14.1501C30.16 14.3401 31.56 14.9201 33.08 14.9501C34.05 14.9701 34.95 15.4701 35.53 16.3401C35.97 17.0101 36.67 17.3101 37.35 17.5701C38.41 17.9801 38.84 17.7201 39.65 16.3801C40.32 16.0601 40.86 16.2501 41.28 16.8301C41.37 17.1201 41.21 17.2901 40.99 17.4201C40.84 17.4901 40.68 17.5601 40.51 17.6001C39.89 17.9001 39.72 18.9001 38.84 18.7801C37.53 18.6001 36.11 18.8901 34.98 17.9101C34.61 17.5901 34.2 17.3401 33.7 17.2901C33.67 17.2601 33.63 17.2201 33.6 17.1801Z" fill="#AEAEAE"/>
<path fill-rule="evenodd" clip-rule="evenodd" d="M23.47 14.2501C23.4 14.2501 23.32 14.2501 23.25 14.2501C21.79 14.2801 20.49 15.0401 18.98 15.0101C17.42 14.9801 15.88 15.1101 14.45 14.3601C14.11 14.1801 13.79 14.5001 13.47 14.2801C13.7 13.1301 14.86 13.8901 15.37 13.3401C15.39 13.1201 15.52 12.9601 15.69 12.8301C15.9 12.6701 16.11 12.5001 16.4 12.6601C16.55 12.7701 16.68 12.9001 16.77 13.0601C17.21 13.8901 17.87 14.2901 18.83 14.1301C19.12 14.0801 19.41 14.1501 19.7 14.2001C20.92 14.4301 21.92 13.9201 22.68 13.0601C23.39 12.2601 24.21 11.9001 25.22 11.9201C26.54 11.9401 27.81 12.0101 29.12 11.4501C30.05 11.0501 30.65 12.0701 31.15 12.8101C30.37 13.5001 29.46 13.0101 28.63 13.0301C27.72 13.0501 26.8 13.2401 25.89 13.1201C25.1 13.0201 24.77 13.7501 24.22 14.0701C23.98 14.2101 23.68 14.0501 23.47 14.2501Z" fill="#C5C5C5"/>
<path fill-rule="evenodd" clip-rule="evenodd" d="M5.65014 14.7299C5.59014 14.7299 5.53014 14.7199 5.47014 14.6999C5.24014 14.3899 5.45014 14.2599 5.69014 14.1099C6.49014 13.5799 7.39014 13.4299 8.32014 13.3599C8.90014 13.3099 9.44014 13.2999 9.72014 12.5499C9.93014 11.9999 10.5701 12.0999 11.0901 12.2299C11.5201 11.9699 11.0401 11.5299 11.3101 11.1799C11.9001 11.4099 12.3101 11.9299 12.1201 12.4299C11.8901 13.0599 12.2201 14.1099 11.0901 14.2499C11.0201 14.1599 10.9701 14.0599 10.9501 13.9499C10.8701 13.6199 10.6401 13.4599 10.3901 13.6799C10.0701 13.9599 10.4101 14.1099 10.6201 14.2599C10.7101 14.3299 10.8001 14.3999 10.8701 14.4799C10.6501 14.7099 10.4201 14.9299 10.2001 15.1599C10.1601 15.1899 10.1301 15.2199 10.0901 15.2599C9.69014 15.3399 9.21014 15.1999 8.92014 15.6299C7.52014 16.4399 6.66014 15.3199 5.65014 14.7299Z" fill="#BFBFBF"/>
<path fill-rule="evenodd" clip-rule="evenodd" d="M5.65015 14.7301C5.89015 14.7101 6.11015 14.7801 6.27015 14.9401C7.02015 15.7301 7.93015 15.5701 8.85015 15.3701C9.24015 14.9401 9.78015 15.3901 10.2001 15.1501C10.5301 15.1501 10.8301 15.1801 10.8701 15.6001C10.3401 15.7401 9.63015 15.2501 9.29015 16.0501C9.28015 16.1101 9.28015 16.1601 9.27015 16.2201C8.94015 16.8401 8.79015 17.5301 8.60015 18.2001C8.43015 18.7901 8.24015 19.4101 7.48015 19.3401C6.76015 19.2701 6.57015 18.6901 6.55015 18.0501C6.62015 17.6401 6.86015 17.3101 7.02015 16.9401C7.02015 15.9201 6.31015 15.3501 5.65015 14.7301Z" fill="#AEAEAE"/>
<path fill-rule="evenodd" clip-rule="evenodd" d="M15.81 13.1299C15.66 13.1999 15.51 13.2799 15.36 13.3499C14.62 13.2999 13.89 13.2299 13.15 13.2099C12.8 13.1999 12.73 12.9899 12.65 12.7299C12.58 12.4999 12.56 12.2699 12.82 12.1599C13.43 11.9099 13.9 11.1599 14.72 11.6499C15.01 11.8299 15.29 11.5399 15.58 11.5499C16.37 11.4899 16.64 11.7799 16.15 12.4799C16.02 12.6899 15.98 12.9399 15.81 13.1299Z" fill="#A7A7A7"/>
<path fill-rule="evenodd" clip-rule="evenodd" d="M11.09 12.2299C9.86 12.6699 8.92 13.7899 7.4 13.6499C6.69 13.5899 5.92 13.9899 5.47 14.6999C5.22 14.7199 4.92 14.7799 4.85 14.4399C4.79 14.1599 5.02 14.0799 5.24 14.0299C6.35 13.5199 7.51 13.1699 8.74 13.1299C9.23 13.1099 9.37 12.8299 9.57 12.4099C9.96 11.5699 10.22 10.4699 11.56 10.6499C10.69 10.9699 10.39 11.4499 11.09 12.2299Z" fill="#AEAEAE"/>
<path fill-rule="evenodd" clip-rule="evenodd" d="M15.8101 13.13C15.6401 12.62 16.7501 11.93 15.6001 11.55C15.5201 11.4 15.4501 11.25 15.3701 11.11C15.4401 11.03 15.5201 10.99 15.6301 10.99C16.3801 11.01 16.7601 10.47 17.1701 9.98004C17.2401 8.95004 18.0101 9.41004 18.5301 9.34004C18.2301 9.89004 18.0301 10.43 17.9101 11.08C17.7901 11.77 16.9901 12.31 16.2701 12.68C16.1201 12.83 15.9601 12.98 15.8101 13.13Z" fill="#C2C2C2"/>
<path fill-rule="evenodd" clip-rule="evenodd" d="M10.8701 14.4799C10.5301 14.4699 10.1401 14.8599 9.86009 14.3899C9.68009 14.0899 9.68009 13.7299 9.87009 13.4299C10.1501 13.0199 10.6101 13.0599 10.9901 13.1699C11.8801 13.4199 11.2701 13.8699 11.0901 14.2499C11.0201 14.3299 10.9501 14.4099 10.8701 14.4799Z" fill="#CDCDCD"/>
<path fill-rule="evenodd" clip-rule="evenodd" d="M15.5901 11.0999C15.5201 11.0999 15.4401 11.0999 15.3701 11.0999C15.0701 10.8799 15.2801 10.6499 15.3601 10.4299C15.5401 10.5199 15.5801 10.6899 15.5901 10.8699C15.7401 10.9499 15.7401 11.0299 15.5901 11.0999Z" fill="#A7A7A7"/>
<path fill-rule="evenodd" clip-rule="evenodd" d="M40.3501 17.19C40.5001 17.19 40.6401 17.19 40.7901 17.19C41.8101 17.4 42.7901 17.43 43.6101 16.6C43.8201 16.39 44.1501 16.36 44.4401 16.31C44.8101 16.33 45.1801 16.41 45.5501 16.45C46.3401 16.58 47.1301 16.8 47.7201 15.96C47.9201 15.68 48.3301 15.71 48.6701 15.73C49.4501 15.77 50.1801 16.15 50.9801 16.07C51.2001 16.05 51.4001 16.21 51.4801 16.45C51.7501 17.29 52.4601 17.41 53.1101 17.23C54.2401 16.9 55.3101 16.97 56.3901 17.36C57.7401 17.94 59.1801 17.67 60.5701 17.69C61.7501 17.7 62.2101 16.67 62.6901 15.78C63.1801 15.3 63.6901 15.43 64.0301 15.89C64.4601 16.46 64.9701 17.04 64.9301 17.85C64.8201 17.99 64.6701 18.05 64.4901 18.06C64.3401 18.05 64.1601 18.04 64.0801 17.92C63.4001 16.97 63.0801 17.63 62.7501 18.22C62.6801 18.36 62.5901 18.48 62.4701 18.58C61.7501 18.97 61.1501 19.83 60.1501 19.19C59.5201 19.12 58.9101 18.85 58.2501 19.07C57.9701 19.16 57.6801 19.06 57.4301 18.85C56.7901 18.31 56.0301 18.08 55.1901 18.08C54.2201 18.27 53.2001 17.65 52.2701 18.3C51.2801 18.96 50.9201 18.91 50.2401 18.01C50.0201 17.72 49.8701 17.37 49.4301 17.15C49.2101 17.8 49.0101 18.43 48.6301 18.97C48.0901 19.73 47.5401 19.29 47.0001 18.98C46.3201 18.36 45.9401 17.28 44.7101 17.52C44.5601 17.55 44.4101 17.55 44.2001 17.7C44.4401 18.01 45.0301 18.05 45.0201 18.56C45.0101 19.24 44.3301 18.98 44.0301 19.27C43.5901 19.49 43.1801 19.45 42.8101 19.11C42.4801 18.8 42.0801 18.67 41.5701 18.66C41.5601 19.46 41.9401 19.79 42.6501 19.76C43.0201 19.75 43.3701 19.6 43.7501 19.65C44.2101 19.73 44.6201 19.88 44.8201 20.35C44.9101 20.56 45.0001 20.77 45.0901 20.98C45.0901 21.05 45.0601 21.13 45.0801 21.2C45.4601 22.56 45.2501 22.77 43.7701 22.77C42.9401 22.77 42.1201 22.51 41.6001 23.76C41.2901 24.52 39.9601 24.65 39.0001 24.3C38.4901 24.12 38.0101 24.07 37.4801 24.13C37.0801 24.17 36.7601 24.13 36.4501 23.69C35.7801 22.76 34.4601 22.91 34.1501 24.01C33.9401 24.72 33.6401 24.65 33.1601 24.58C32.7101 24.25 31.7401 24.87 31.7101 23.78C33.3101 23.98 33.7801 22.87 34.1601 21.65C34.2801 21.53 34.4201 21.48 34.5801 21.48C35.0501 21.47 35.1101 22.18 35.6301 22.08C35.7301 22.1 35.8201 22.13 35.9201 22.17C36.3301 22.38 36.5801 22.79 37.0001 23C37.7801 23.4 38.7601 22.96 39.4901 23.58C39.7201 23.69 39.9301 23.7 40.1101 23.48C40.1801 23.41 40.2501 23.34 40.3301 23.28C40.6101 23.08 40.9301 22.93 41.2001 22.7C41.5301 22.39 41.9101 22.18 42.4601 22.07C41.5101 22.2 41.1501 21.66 41.0901 20.98C41.0301 20.26 40.8301 19.83 40.0601 19.67C39.4701 19.55 39.3501 19.07 39.6701 18.55C39.9101 18.12 40.0701 17.62 40.3501 17.19Z" fill="#969696"/>
<path fill-rule="evenodd" clip-rule="evenodd" d="M31.7802 23.71C31.8402 24.61 32.7702 24.19 33.1502 24.6C32.5002 24.65 31.8702 24.64 31.3502 24.15C30.6102 23.67 29.5702 23.67 29.1102 22.74C29.0202 21.6 28.1102 20.84 27.7202 19.82C27.3302 18.79 26.6902 19.63 26.1702 19.89C25.7802 20.23 25.3702 20.17 25.1002 19.8C24.4902 18.96 23.5602 18.84 22.6702 18.65C21.4802 18.39 20.2802 18.24 19.1502 17.69C18.2402 17.25 17.2102 17.49 16.2302 17.48C15.7702 16.91 15.8502 16.44 16.6402 16.53C17.9002 16.67 19.1202 16.35 20.3902 16.43C21.5602 16.5 22.5602 16.88 23.5502 17.34C24.0802 17.59 24.5902 17.9 25.1302 18.13C26.1302 18.55 26.2502 18.48 26.6202 17.42C27.4702 16.97 27.8402 17.46 28.1202 18.17C28.5702 19.31 28.9102 20.49 29.4902 21.58C29.6802 21.94 29.8002 22.34 30.1502 22.6C30.5002 23.23 31.5102 22.93 31.7802 23.71Z" fill="#808080"/>
<path fill-rule="evenodd" clip-rule="evenodd" d="M44.4201 23.22C43.9501 23.3 43.7101 23.93 43.0501 23.64C43.2301 24.15 44.0401 23.99 43.8001 24.63C43.6101 25.13 43.1601 25.06 42.7601 25.05C42.2601 25.03 41.8001 25.06 41.4801 25.52C41.4101 25.47 41.3801 25.42 41.4001 25.36C41.4201 25.3 41.4401 25.27 41.4701 25.27C41.4801 25.01 41.4701 24.58 41.6901 24.58C42.8301 24.56 43.0301 22.68 44.4201 23.22Z" fill="#4B4B4B"/>
<path fill-rule="evenodd" clip-rule="evenodd" d="M41.47 25.2801C41.47 25.3601 41.48 25.4401 41.48 25.5201C40.43 27.0101 39.94 26.9701 38.55 25.2701C38.54 25.2001 38.54 25.1301 38.54 25.0601C39.36 25.0601 40.13 25.1401 40.28 26.3501C40.74 25.9401 41.1 25.6101 41.47 25.2801Z" fill="#515151"/>
<path fill-rule="evenodd" clip-rule="evenodd" d="M38.54 25.0601C37.69 24.7101 37.03 25.3101 36.29 25.5001C36.83 24.4301 37.76 24.2401 38.54 25.0601Z" fill="#515151"/>
<path fill-rule="evenodd" clip-rule="evenodd" d="M7.03005 16.9401C7.08005 17.3401 7.02005 17.7301 6.82005 18.0801C6.56005 18.7301 6.76005 19.2601 7.43005 19.3101C7.98005 19.3601 8.54005 19.0901 8.49005 18.3101C8.47005 18.0001 8.54005 17.6501 8.79005 17.5001C9.42005 17.1501 9.23005 16.5601 9.29005 16.0401C9.43005 15.9901 9.66005 15.8701 9.69005 15.9101C10.3401 16.7301 11.0701 16.2401 11.7801 16.0601C11.8801 16.7801 11.0901 17.0001 10.9301 17.5801C10.8101 17.8501 10.6201 18.1001 10.6701 18.4101C10.7901 19.1501 10.3801 19.4801 9.74005 19.6501C9.30005 19.6601 8.79005 19.5201 8.51005 19.9701C8.06005 20.7001 7.35005 20.7501 6.77005 20.4401C6.18005 20.1201 6.10005 19.3501 6.08005 18.7101C6.05005 17.9601 6.37005 17.3401 7.03005 16.9401Z" fill="#999999"/>
<path fill-rule="evenodd" clip-rule="evenodd" d="M6.34018 22.77C5.34018 23.5 4.38018 24.31 3.00018 23.94C2.74018 23.88 2.31018 24.06 2.25018 23.71C2.18018 23.34 2.25018 22.9 2.78018 22.8C2.88018 23.55 3.45018 23.53 3.96018 23.44C4.41018 23.37 4.83018 23.29 4.89018 22.59C5.02018 21.13 5.89018 21.83 6.58018 22.12C6.73018 22.37 6.56018 22.48 6.37018 22.58C6.36018 22.65 6.35018 22.71 6.34018 22.77Z" fill="#595959"/>
<path fill-rule="evenodd" clip-rule="evenodd" d="M6.38013 22.5901C6.45013 22.4301 6.52013 22.2801 6.59013 22.1301C6.74013 22.0301 6.89013 21.9301 7.04013 21.8301C7.05013 21.8701 7.05013 21.9201 7.06013 21.9601C7.24013 22.1701 7.24013 22.3801 7.06013 22.5801C6.83013 22.8901 6.60013 22.6601 6.38013 22.5901Z" fill="#292929"/>
<path fill-rule="evenodd" clip-rule="evenodd" d="M43.2701 1.88006C43.2801 1.52006 43.3401 1.12006 43.8201 1.30006C44.4401 1.53006 44.9901 1.30006 45.5601 1.22006C47.4301 0.96006 49.0401 1.73006 49.8701 3.44006C50.3201 4.36006 51.1001 4.21006 51.8201 4.36006C51.9001 4.44006 52.0301 4.51006 52.1201 4.47006C53.6301 3.82006 54.8301 4.78006 56.1301 5.23006C56.2301 5.27006 56.3401 5.30006 56.4401 5.35006C56.5901 5.44006 56.7101 5.55006 56.8201 5.68006C57.0801 6.10006 57.4301 6.42006 57.8001 6.74006C58.7001 7.51006 58.6701 8.60006 57.6801 9.27006C57.0701 9.68006 56.3501 9.93006 55.6701 10.2301C55.3201 10.3801 54.8701 10.3901 54.5901 10.1401C53.7301 9.41006 52.5401 9.22006 51.7901 8.33006C51.5601 8.06006 51.2701 7.86006 50.9101 8.00006C49.9901 8.35006 49.0001 8.25006 48.1001 8.70006C47.1901 9.16006 46.6301 8.71006 46.5501 7.65006C46.4101 5.85006 46.4101 5.85006 44.6501 5.39006C43.6901 5.14006 43.1301 4.47006 42.9901 3.41006C43.1301 2.96006 43.1701 2.49006 43.2301 2.03006C43.2501 1.98006 43.2601 1.93006 43.2701 1.88006Z" fill="#E8E8E8"/>
<path fill-rule="evenodd" clip-rule="evenodd" d="M40.5701 3.22993C40.4201 3.15993 40.2601 3.08993 40.1101 3.01993C40.5501 2.15993 41.5001 1.99993 42.1701 2.10993C43.0401 2.25993 42.7501 1.77993 42.8101 1.42993C42.9601 1.57993 43.1101 1.72993 43.2601 1.87993C43.4301 2.32993 43.4601 2.76993 43.1801 3.18993C43.0901 3.33993 43.0301 3.50993 42.9701 3.66993C42.4501 4.66993 40.1601 5.19993 39.3101 4.51993C39.1801 4.41993 39.1601 4.26993 39.2201 4.11993C39.7001 4.11993 40.1901 4.14993 40.6701 4.09993C41.0101 4.06993 41.3801 3.85993 41.3201 3.47993C41.2601 3.08993 40.8401 3.26993 40.5701 3.22993Z" fill="#CCCCCC"/>
<path fill-rule="evenodd" clip-rule="evenodd" d="M59.9601 5.06012C60.8801 4.94012 61.9301 4.43012 62.2501 5.96012C62.3201 6.29012 62.7901 6.53012 63.0801 6.82012C63.4601 7.36012 63.3601 8.03012 63.5401 8.62012C63.4601 8.70012 63.3601 8.74012 63.2501 8.75012C62.8701 8.70012 62.6901 8.44012 62.5701 8.11012C62.4201 7.62012 62.5901 6.98012 61.9201 6.74012C61.2001 5.71012 60.2801 5.58012 59.1801 6.10012C58.3901 6.47012 57.6201 6.60012 57.0101 5.70012C56.8401 5.45012 56.4701 5.32012 56.1301 5.25012C55.8201 5.11012 55.5501 4.93012 55.4401 4.58012C55.3701 4.43012 55.2901 4.27012 55.2201 4.12012C56.1201 4.33012 56.9801 4.60012 57.6501 5.31012C58.5001 6.23012 59.1801 5.10012 59.9601 5.06012Z" fill="#BFBFBF"/>
<path fill-rule="evenodd" clip-rule="evenodd" d="M55.4301 4.57996C55.7401 4.59996 55.9601 4.73996 56.1001 5.01996C56.2201 5.14996 56.4601 5.22996 56.3201 5.48996C56.1101 5.57996 55.9201 5.56996 55.6901 5.44996C54.6501 4.92996 53.7001 3.98996 52.3601 4.68996C52.2601 4.73996 52.0001 4.47996 51.8201 4.35996C52.6601 4.17996 53.9801 4.22996 55.0001 4.47996C55.1401 4.50996 55.2801 4.54996 55.4301 4.57996Z" fill="#DEDEDE"/>
<path fill-rule="evenodd" clip-rule="evenodd" d="M51.6101 3.47C52.1901 2.62 52.9001 2.99 53.6101 3.25C52.9401 3.27 52.2401 3.09 51.6101 3.47Z" fill="#BFBFBF"/>
<path fill-rule="evenodd" clip-rule="evenodd" d="M47.1101 18.7499C47.5001 18.9599 48.0201 19.5599 48.2901 18.8799C48.5101 18.3099 49.5201 17.7199 48.5301 16.8599C49.3401 16.6799 49.9901 16.5099 50.3501 17.5099C50.6701 18.4299 51.3501 18.7399 52.2801 18.3099C51.8401 19.3499 50.9201 19.0099 50.1701 18.9499C49.8201 18.9199 49.4901 18.7899 49.2901 19.0999C48.5901 20.1599 47.8601 19.7199 47.1201 19.1999C47.0701 19.1999 47.0201 19.1999 46.9701 19.1999C46.7201 19.0999 46.4701 18.9999 46.7001 18.6699C46.8401 18.6399 46.9801 18.6299 47.1101 18.7499Z" fill="#7E7E7E"/>
<path fill-rule="evenodd" clip-rule="evenodd" d="M60.15 19.1901C60.3 19.2101 60.51 19.3101 60.58 19.2501C61.09 18.7401 61.82 18.6801 62.4 18.3101C62.73 20.0201 62.35 20.7701 60.81 20.5801C60.74 20.4901 60.67 20.4101 60.6 20.3301C60.67 19.8601 60.35 19.5501 60.15 19.1901Z" fill="#727272"/>
<path fill-rule="evenodd" clip-rule="evenodd" d="M55.2001 18.0801C55.6301 17.7701 56.0301 17.9501 56.4601 18.1301C57.3101 18.5001 58.0601 19.1701 59.1301 18.8501C59.3801 18.7801 59.8801 18.8701 60.1501 19.1801C58.9801 19.2701 57.7801 19.4201 56.7901 18.6201C56.3001 18.2301 55.5801 18.6701 55.2001 18.0801Z" fill="#727272"/>
<path fill-rule="evenodd" clip-rule="evenodd" d="M47.1201 19.84C47.1101 19.93 47.1001 20.02 47.0901 20.11C46.7901 20.29 46.4801 20 46.1701 20.11C46.0501 19.73 45.3801 19.73 45.5201 19.17C46.0501 18.66 46.5701 19.03 47.0901 19.18C47.1101 19.41 47.1101 19.63 47.1201 19.84Z" fill="#2B2B2B"/>
<path fill-rule="evenodd" clip-rule="evenodd" d="M16.2702 17.4101C17.2502 16.6901 18.5002 16.9401 19.2802 17.3401C20.7502 18.1101 22.4302 17.9201 23.8702 18.7001C24.3402 18.9601 24.9202 18.9301 25.1802 19.5601C25.3502 19.9801 25.8102 19.8701 26.1802 19.8901C26.1802 19.9701 26.1802 20.0501 26.1802 20.1201C25.9002 20.4101 25.5102 20.4401 25.2802 20.1801C24.3602 19.1501 23.1202 18.9101 21.8602 18.8601C20.3602 18.8001 19.1002 17.8801 17.6102 17.8401C17.1102 17.8201 16.7102 17.5801 16.5502 18.4701C16.4602 18.9601 15.5902 19.6401 14.6802 19.2201C14.7602 18.4701 15.8502 18.6601 15.9202 17.8901C15.9902 17.7001 16.0702 17.5101 16.2702 17.4101Z" fill="#626262"/>
<path fill-rule="evenodd" clip-rule="evenodd" d="M16.2501 18.06C16.1501 19.02 15.1301 18.75 14.6701 19.23C14.6001 19.23 14.5301 19.22 14.4701 19.21C13.8601 18.93 13.1601 18.72 13.1401 17.86C13.0701 17.85 12.9901 17.84 12.9201 17.83C12.8901 17.78 12.8701 17.72 12.8601 17.66C12.9201 17.57 13.0001 17.5 13.1001 17.46C14.1101 17.86 15.2201 17.77 16.2501 18.06Z" fill="#717171"/>
<path fill-rule="evenodd" clip-rule="evenodd" d="M13.1401 17.8501C13.3101 18.5601 14.3201 18.4701 14.4701 19.2001C13.1401 19.6301 13.2301 18.6501 13.1401 17.8501Z" fill="#626262"/>
<path fill-rule="evenodd" clip-rule="evenodd" d="M64.8801 17.85C64.5901 17.35 64.2801 16.85 63.9901 16.35C63.7301 15.9 63.4101 15.6 62.8401 15.84C62.8101 15.79 62.7801 15.74 62.7501 15.68C62.9701 14.85 63.5001 15.11 64.0201 15.31C64.3201 15.47 64.5101 15.76 64.7301 16.01C64.9301 16.24 65.2201 16.52 65.4801 16.38C66.3901 15.91 67.2901 16.25 68.2001 16.27C69.4401 16.3 69.9201 15.76 70.1601 14.21C70.2301 13.74 70.1501 13.22 70.6901 12.95C70.7601 12.95 70.8201 12.95 70.8901 12.95C71.1501 13.23 71.1201 13.51 70.9101 13.8C70.7001 13.97 70.9201 14.11 70.9401 14.26C71.3701 15.21 70.6901 15.83 70.2701 16.53C70.1101 16.82 69.9601 17.11 69.8001 17.4C68.6001 18.14 67.3001 18.52 65.8801 18.44C65.4701 18.41 65.0701 18.29 64.8801 17.85Z" fill="#B1B1B1"/>
<path fill-rule="evenodd" clip-rule="evenodd" d="M70.2801 16.52C70.1801 15.67 70.9401 15.07 70.9501 14.25C71.8401 14.73 72.4201 14.34 72.9001 13.51C73.6801 14.21 74.0801 15.33 75.2001 15.62C75.4301 15.93 75.3401 16.11 74.9701 16.1C74.0901 16.08 73.1101 16.14 72.3801 15.76C71.2901 15.19 70.9601 15.88 70.4901 16.51C70.4201 16.51 70.3501 16.51 70.2801 16.52Z" fill="#A8A8A8"/>
<path fill-rule="evenodd" clip-rule="evenodd" d="M64.8801 17.8501C65.9401 18.1101 66.9501 18.5301 67.9801 17.5601C68.3401 17.2201 69.2201 17.9201 69.8001 17.3901C69.5301 18.0401 69.1601 18.5201 68.3301 18.4201C68.1701 18.4001 67.9801 18.6501 67.8001 18.7701C67.7901 18.8201 67.7801 18.8701 67.7701 18.9201C66.9701 19.6501 66.1301 19.1201 65.3101 18.9701C65.1701 18.9001 65.0401 18.8201 64.9101 18.7301C64.7001 18.4701 64.2901 18.3201 64.4001 17.8601C64.5601 17.8601 64.7201 17.8501 64.8801 17.8501Z" fill="#919191"/>
<path fill-rule="evenodd" clip-rule="evenodd" d="M70.4901 16.4999C70.6401 16.1599 70.8201 15.8299 70.9401 15.4799C71.1001 15.0099 71.3101 15.0499 71.6901 15.2599C72.7701 15.8499 74.0001 15.5899 75.1501 15.8199C75.1501 15.8199 75.1901 15.6899 75.2001 15.6099C75.4801 15.8899 75.5701 16.3899 75.1601 16.3399C74.5701 16.2699 73.9801 16.5999 73.4201 16.2799C73.1701 16.2099 72.8901 16.1899 72.6801 16.0599C71.8101 15.5599 71.1101 15.8099 70.4901 16.4999Z" fill="#919191"/>
<path fill-rule="evenodd" clip-rule="evenodd" d="M68.49 21.42C67.82 21.2 67.14 20.97 66.46 20.75C66.45 20.62 66.43 20.48 66.42 20.35C66.45 20.31 66.48 20.28 66.51 20.24C66.88 19.7 67.46 19.34 67.8 18.78V18.77C68.01 18.82 68.51 18.72 68.26 19.1C67.61 20.09 67.96 20.63 68.91 21.02C68.9 21.27 68.76 21.42 68.49 21.42Z" fill="#606060"/>
<path fill-rule="evenodd" clip-rule="evenodd" d="M70.9201 13.7899C70.9101 13.5099 70.9101 13.2199 70.9001 12.9399C71.0601 13.0099 71.2201 13.0699 71.3801 13.1299C71.2601 13.3799 71.1901 13.6599 70.9201 13.7899Z" fill="#919191"/>
<path fill-rule="evenodd" clip-rule="evenodd" d="M39.2202 4.12011C40.1602 4.71011 42.3102 4.31011 42.8102 3.45011C43.4402 4.69011 44.1402 5.81011 45.7302 6.03011C46.4402 6.13011 46.7402 6.74011 46.6302 7.47011C46.5802 7.80011 46.5502 8.13011 46.6902 8.46011C46.8602 9.05011 47.3602 9.50011 47.3602 10.1601C46.5802 10.6901 46.3002 10.1801 46.0802 9.54011C45.9702 9.18011 45.7602 8.86011 45.6702 8.50011C45.6302 8.36011 45.5902 8.21011 45.5102 8.08011C45.0102 7.22011 41.9102 6.71011 41.2902 7.47011C40.2202 8.77011 38.7202 9.37011 37.3402 10.1801C36.6002 10.6101 35.7602 10.6601 34.9402 10.4601C34.2202 10.2901 33.6102 10.3801 33.0802 10.9101C32.4802 11.5101 31.9002 11.4601 31.1802 11.0301C30.2602 10.4801 29.2702 10.1501 28.3102 11.0701C27.9902 11.3701 27.5602 11.3201 27.1402 11.3001C25.5002 11.2201 23.9102 11.2201 22.4602 12.2701C21.4302 13.0201 20.0802 13.0801 18.8702 13.4401C18.4402 13.5701 17.9802 13.3901 17.5902 13.1501C16.9002 12.7301 16.8402 12.2101 17.5002 11.7501C17.9502 11.4501 18.1802 11.2401 17.8502 10.7001C17.6702 10.4001 17.8602 10.0501 18.1302 9.94011C19.9802 9.13011 21.7802 8.13011 23.9202 8.41011C23.9902 8.41011 24.0702 8.41011 24.1402 8.42011C24.8702 8.71011 25.2502 8.25011 25.5502 7.71011C25.8302 7.19011 26.2202 6.98011 26.8102 6.96011C27.8002 6.92011 28.7202 6.19011 29.7002 6.44011C30.5002 6.64011 31.1202 6.51011 31.7602 6.11011C32.2202 6.77011 31.7002 7.09011 31.2602 7.32011C30.7702 7.58011 30.2302 7.77011 29.6402 7.69011C29.3802 7.65011 29.0902 7.59011 29.0402 7.97011C29.0002 8.28011 29.1002 8.57011 29.4002 8.72011C29.6402 8.84011 29.9302 8.91011 30.1702 8.82011C31.7702 8.20011 33.5202 8.76011 35.1302 8.18011C35.4802 8.05011 35.8702 8.12011 36.2402 8.22011C36.7202 8.35011 37.1202 8.22011 37.5002 7.92011C37.8802 7.61011 38.2902 7.34011 38.7802 7.26011C39.3402 7.17011 39.6002 6.90011 39.6602 6.30011C39.7102 5.69011 39.5502 5.34011 39.0102 5.03011C38.1402 4.53011 37.2902 4.63011 36.4102 4.91011C36.0502 5.02011 35.7202 5.21011 35.3502 5.28011C34.6302 5.41011 34.0002 5.28011 34.0302 4.40011C34.0402 3.97011 33.3702 3.54011 34.0202 3.11011C34.4802 3.19011 34.9602 3.01011 35.4102 3.23011C36.1902 3.80011 36.9702 4.16011 37.9902 3.77011C38.3802 3.60011 38.8602 3.83011 39.2202 4.12011Z" fill="#DCDCDC"/>
<path fill-rule="evenodd" clip-rule="evenodd" d="M35.41 3.21995C34.88 3.21995 34.35 3.22995 33.82 3.22995C33.03 3.43995 32.23 3.63995 31.42 3.70995C30.63 3.76995 30.07 4.08995 29.67 4.73995C29.62 4.76995 29.58 4.78995 29.53 4.80995C29.14 4.09995 28.43 4.78995 27.91 4.46995C28.14 4.05995 28.55 3.92995 28.86 3.68995C30.99 2.72995 33.16 2.45995 35.41 3.21995Z" fill="#CFCFCF"/>
<path fill-rule="evenodd" clip-rule="evenodd" d="M47.1101 18.7499C46.9601 18.7499 46.8001 18.7499 46.6501 18.7499C46.1801 19.1899 45.5801 18.7399 45.0801 18.9799C44.9301 19.1199 44.7701 19.2699 44.6201 19.4099C44.3301 19.5799 44.1001 19.4699 43.9001 19.2499C43.8501 19.1399 43.8701 19.0499 43.9601 18.9699C44.0901 18.9099 44.2101 18.8099 44.3501 18.7799C44.5401 18.7499 44.8401 18.9299 44.8101 18.5399C44.8001 18.3299 44.6501 18.1899 44.4301 18.2199C43.9801 18.2899 43.4301 18.2299 43.5401 17.7499C43.6101 17.4199 44.1701 17.1599 44.7301 17.1199C45.9701 17.0499 46.7201 17.5999 47.1101 18.7499Z" fill="#7F7F7F"/>
<path fill-rule="evenodd" clip-rule="evenodd" d="M46.17 20.12C46.47 19.24 46.78 19.89 47.09 20.12C47.52 20.89 47.25 21.23 46.42 21.24C46.4 20.85 46.48 20.44 46.17 20.12Z" fill="#080808"/>
<path fill-rule="evenodd" clip-rule="evenodd" d="M43.9501 19.21C44.1701 19.28 44.3901 19.35 44.6101 19.42C44.6801 19.73 44.7501 20.05 44.8201 20.36C44.4501 20.2 44.0701 20.05 43.7001 19.89C43.4901 19.56 43.6401 19.36 43.9501 19.21Z" fill="#666666"/>
<path fill-rule="evenodd" clip-rule="evenodd" d="M45.0701 18.9801C45.5601 18.6501 46.0901 18.6301 46.6401 18.7501C46.7901 18.9001 46.9401 19.0401 47.0901 19.1901C46.5701 19.1901 46.0401 19.1801 45.5201 19.1801C45.3801 19.1201 45.2201 19.0501 45.0701 18.9801Z" fill="#626262"/>
<path fill-rule="evenodd" clip-rule="evenodd" d="M45.9101 20.4699C45.8901 20.7199 45.8101 20.8799 45.6501 20.8699C45.3701 20.8399 45.1901 20.6299 45.1501 20.3599C45.1201 20.1599 45.3101 20.0899 45.4401 20.1499C45.6301 20.2199 45.7901 20.3699 45.9101 20.4699Z" fill="#111111"/>
<path fill-rule="evenodd" clip-rule="evenodd" d="M70.7101 12.9401C70.4501 13.7401 70.6101 14.6001 70.2401 15.3901C69.7201 16.5101 68.5001 17.0501 67.3201 16.5501C67.0401 16.4301 66.7601 16.1801 66.4901 16.4001C65.2301 17.4201 64.5601 16.6701 63.9701 15.6101C63.8201 15.3901 63.6601 15.1801 63.6201 14.9001C63.6301 14.7901 63.6801 14.7001 63.7601 14.6201C63.8901 14.5501 64.0401 14.5201 64.1901 14.5201C65.4601 14.5601 65.4601 14.5501 64.9501 13.3801C64.7501 12.9201 64.8801 12.5301 65.0801 12.1001C65.3501 11.5201 65.6701 10.9801 65.9801 10.4301C66.5201 10.3801 66.8601 10.6601 67.1101 11.1101C67.2601 11.3401 67.2401 11.6901 67.6101 11.7501C68.7201 11.9301 69.5001 12.9501 70.6801 12.9301L70.7101 12.9401Z" fill="#C2C2C2"/>
<path fill-rule="evenodd" clip-rule="evenodd" d="M66.0001 10.4301C66.1501 10.6801 66.5901 10.8301 66.1601 11.2301C65.3101 12.0001 64.6801 12.8301 65.7601 13.9101C65.9801 14.1201 65.9701 14.3801 65.7501 14.6001C65.5001 14.8601 65.2801 15.2001 64.8201 15.0201C64.4701 14.8901 64.1101 14.8101 63.7601 14.7001C63.1401 14.9201 62.5601 14.2701 61.9101 14.6301C61.5801 14.8201 61.2601 14.8901 61.2901 15.4101C61.4001 16.9301 60.8301 17.27 59.4101 16.63C59.2401 16.55 59.0801 16.46 58.9701 16.3C59.4201 14.21 60.6901 13.0801 62.4801 13.1301C63.1201 13.0101 63.7401 13.0701 64.3701 13.4401C63.9501 12.3001 65.0601 11.3501 64.6001 10.2501C65.0801 9.72005 65.4101 10.2501 65.8001 10.4101C65.8601 10.4201 65.9301 10.4201 66.0001 10.4301Z" fill="#CDCDCD"/>
<path fill-rule="evenodd" clip-rule="evenodd" d="M65.8001 10.4201C65.4201 10.4801 65.0301 9.99013 64.6501 10.4301C64.5101 10.5701 64.3401 10.6101 64.1501 10.5901C63.4701 10.1101 62.9501 9.56013 63.2901 8.64013C63.3701 8.64013 63.4501 8.63013 63.5401 8.63013C63.8001 9.00013 63.8401 9.51013 64.6401 9.24013C65.1001 9.08013 65.3801 10.0201 65.8001 10.4201Z" fill="#C7C7C7"/>
<path fill-rule="evenodd" clip-rule="evenodd" d="M70.6901 12.9201C69.3101 13.2201 68.4401 12.0101 67.2501 11.7601C66.8701 11.6801 67.1501 11.3301 67.1201 11.1001C67.1901 11.1001 67.2501 11.1101 67.3201 11.1101C67.4201 11.4201 67.6201 11.7001 67.9301 11.7001C69.0201 11.7501 69.6901 12.7101 70.6901 12.9201Z" fill="#B1B1B1"/>
<path fill-rule="evenodd" clip-rule="evenodd" d="M31.8002 6.15999C31.1802 6.73999 30.5202 6.99999 29.6702 6.64999C29.3702 6.52999 29.0102 6.56999 28.6902 6.73999C28.0202 7.08999 27.3502 7.43999 26.5402 7.29999C26.2602 7.24999 26.0502 7.38999 25.9702 7.70999C25.7002 8.77999 24.9502 8.65999 24.1602 8.41999C24.6302 8.41999 25.0002 8.28999 25.0802 7.74999C25.2402 7.39999 25.3402 7.01999 25.7202 6.81999C26.7002 6.92999 27.5102 6.29999 28.4402 6.17999C28.5102 6.16999 28.5802 6.15999 28.6502 6.14999C29.3702 6.21999 30.0902 6.29999 30.8102 6.34999C31.0402 6.35999 31.2602 6.20999 31.2602 5.94999C31.2602 5.64999 31.0402 5.58999 30.7902 5.65999C30.0502 5.85999 29.8102 5.33999 29.5602 4.81999L29.5802 4.79999C30.2802 4.27999 31.0102 4.50999 31.6702 4.81999C32.2602 5.10999 32.5402 5.61999 31.8002 6.15999Z" fill="#CFCFCF"/>
<path fill-rule="evenodd" clip-rule="evenodd" d="M9.73999 19.6501C10.12 19.3301 10.57 19.0701 10.3 18.4101C10.16 18.0601 10.5 17.7401 10.65 17.4101C10.73 17.3301 10.82 17.3101 10.93 17.3401C11.2 17.5101 11.45 17.6901 11.32 18.0801C10.85 18.4101 11.11 19.1001 10.65 19.4301C10.4 19.7201 10.06 19.6601 9.73999 19.6501Z" fill="#6B6B6B"/>
<path fill-rule="evenodd" clip-rule="evenodd" d="M11.3101 18.0701C11.1601 17.8501 10.8601 17.7301 10.8701 17.4101C11.6001 16.6001 11.9501 16.6401 12.4401 17.6101C12.1001 17.7001 11.7501 17.7701 11.5101 18.0601C11.4501 18.0701 11.3801 18.0701 11.3101 18.0701Z" fill="#646464"/>
<path fill-rule="evenodd" clip-rule="evenodd" d="M10.6501 19.4301C10.8001 18.9401 10.5601 18.2601 11.3201 18.0801C10.8401 18.4101 11.7801 19.4301 10.6501 19.4301Z" fill="#646464"/>
<path fill-rule="evenodd" clip-rule="evenodd" d="M23.93 8.40013C21.89 8.36013 20.18 9.42013 18.36 10.1001C18.09 10.2001 17.81 10.4801 18.13 10.8001C18.76 11.4401 18.27 11.6801 17.76 11.9301C17.04 12.2801 17.18 12.5801 17.81 12.8801C18.19 13.0701 18.65 13.2701 18.99 13.0801C20.19 12.3901 21.65 12.5201 22.81 11.6501C24.15 10.6401 25.76 10.7201 27.33 10.9801C27.73 11.0501 27.96 10.9601 28.22 10.7201C29.2 9.83013 30.54 9.79013 31.53 10.7401C32.06 11.2501 32.37 11.2001 32.78 10.6801C33.37 9.92013 34.04 9.72013 35.03 10.0601C35.9 10.3601 36.77 10.0801 37.66 9.59013C39.11 8.79013 40.48 7.97013 41.49 6.63013C41.61 6.47013 41.78 6.36013 41.97 6.41013C43.12 6.69013 44.29 6.91013 45.4 7.30013C46.27 7.61013 45.91 8.72013 46.43 9.30013C45.96 9.84013 46.96 10.3501 46.45 10.8901C45.86 11.1501 45.76 10.6601 45.59 10.3001C44.58 8.20013 41.91 7.86013 40.47 9.69013C39.93 10.3701 39.26 10.9101 38.59 11.4401C37.97 11.9301 37.25 12.0701 36.47 11.9701C34.97 11.7601 33.47 11.3401 32 12.1601C31.57 12.4001 31.12 12.1201 30.77 11.8201C30.05 11.2001 29.43 11.0901 28.64 11.8301C27.88 12.5501 26.83 12.0601 25.96 11.9801C24.57 11.8601 23.57 12.2401 22.58 13.2401C21.84 13.9801 20.91 14.7301 19.65 14.4701C19.35 14.4701 19.05 14.4601 18.75 14.4701C17.18 14.5001 16.81 14.2301 16.27 12.6701C16.66 12.1701 16.79 11.4101 17.58 11.2701C17.73 11.2401 17.79 11.0601 17.71 10.9101C17.24 10.0001 17.86 9.65013 18.53 9.33013C18.68 9.25013 18.83 9.16013 18.98 9.08013C20.16 8.95013 21.2 8.23013 22.42 8.26013C22.93 8.28013 23.45 8.03013 23.93 8.40013Z" fill="#D2D2D2"/>
<path fill-rule="evenodd" clip-rule="evenodd" d="M15.5901 11.1C15.5901 11.02 15.5901 10.95 15.5901 10.87C16.2201 10.84 16.4301 10.2 16.9301 9.96997C17.0101 9.96997 17.0801 9.96997 17.1601 9.96997C17.1501 11.06 16.3601 11.07 15.5901 11.1Z" fill="#B4B4B4"/>
<path fill-rule="evenodd" clip-rule="evenodd" d="M12.4502 17.6101C11.9702 17.2101 11.4802 16.8301 10.8802 17.4101C10.8102 17.4101 10.7302 17.4101 10.6602 17.4101C10.8602 16.8101 11.4302 16.5301 11.7902 16.0701C12.4202 16.7201 13.2202 16.3601 13.9502 16.4101C14.2702 16.4301 14.6002 16.3301 14.9302 16.2801C15.2802 16.4701 15.4002 16.7401 15.2002 17.1001C14.9802 17.4901 14.6302 17.6401 14.1902 17.6701C13.8402 17.6901 13.5202 17.2701 13.1502 17.6001C13.0602 17.6201 12.9602 17.6301 12.8702 17.6501C12.7202 17.6401 12.5902 17.6301 12.4502 17.6101Z" fill="#818181"/>
<path fill-rule="evenodd" clip-rule="evenodd" d="M60.8101 20.5899C62.1001 20.3599 62.4101 19.4499 62.4001 18.3199C62.4701 18.2399 62.5401 18.1599 62.6201 18.0899C62.7401 17.9699 62.8901 17.9499 63.0501 17.9999C63.1401 18.0599 63.1901 18.1499 63.2201 18.2499C63.2001 18.4999 63.3001 18.7799 63.0601 18.9899C62.3501 19.2399 62.8601 19.8999 62.6101 20.2999C62.0201 20.3899 61.8901 21.4599 61.0501 21.0199C60.9701 20.8699 60.8901 20.7299 60.8101 20.5899Z" fill="#646464"/>
<path fill-rule="evenodd" clip-rule="evenodd" d="M65.0901 18.5401C65.1701 18.6201 65.2401 18.6901 65.3201 18.7601C65.4401 18.8601 65.4601 18.9801 65.4101 19.1301C65.3801 19.1601 65.3401 19.1901 65.3101 19.2201C65.2401 19.2101 65.1701 19.2001 65.1001 19.1901C64.5301 18.8701 63.7001 18.9501 63.5201 18.0801C63.3901 18.2201 63.2501 18.2101 63.1001 18.1101L63.0601 18.0801C63.1001 17.3701 63.4801 17.3301 63.9201 17.7301C64.2801 18.0601 64.6301 18.3701 65.0901 18.5401Z" fill="#606060"/>
<path fill-rule="evenodd" clip-rule="evenodd" d="M61.05 21.01C61.73 21.12 61.9201 20.16 62.6101 20.29C62.4201 20.58 62.1101 20.8 62.1501 21.21C61.7701 21.21 61.37 21.34 61.05 21.01Z" fill="#434343"/>
<path fill-rule="evenodd" clip-rule="evenodd" d="M63.1001 18.1101C63.2401 18.1001 63.3801 18.0901 63.5201 18.0801C63.3201 18.3601 63.5501 18.8501 63.0601 18.9801C63.0701 18.6901 63.0901 18.4001 63.1001 18.1101Z" fill="#434343"/>
<path fill-rule="evenodd" clip-rule="evenodd" d="M28.4201 6.17004C27.5401 6.48004 26.7601 7.25004 25.7001 6.81004C26.6201 6.64004 27.4501 6.10004 28.4201 6.17004Z" fill="#BEBEBE"/>
<path fill-rule="evenodd" clip-rule="evenodd" d="M66.42 20.3501C66 20.0301 65.89 19.3801 65.3 19.2201L65.33 19.1801C66.42 18.9701 66.67 19.2301 66.44 20.3201L66.42 20.3501Z" fill="#606060"/>
<path fill-rule="evenodd" clip-rule="evenodd" d="M13.1401 17.61C13.2701 16.99 13.6601 17.33 13.9901 17.35C14.7201 17.39 15.2701 17.22 14.9201 16.28C16.1301 16.07 17.4201 16.73 18.6001 15.96C18.7601 15.86 19.1101 15.98 19.3401 16.07C19.7101 16.21 20.2401 16.34 20.4101 16.13C21.1701 15.17 22.4001 15.76 23.2301 15.17C23.4901 14.99 23.6401 15.08 23.7701 15.3C24.0101 15.7 24.6301 16.14 24.3701 16.52C23.4501 17.83 24.8601 17.51 25.2401 17.76C25.6801 18.06 26.2501 17.88 26.6201 17.41C27.1001 18.03 26.5501 18.43 26.2901 18.89C26.1601 19.12 25.9701 19.17 25.7401 18.98C24.4801 17.9 22.9301 17.26 21.4001 16.88C19.9101 16.5 18.2601 16.74 16.6901 16.69C16.0601 16.67 16.1401 17.01 16.2701 17.41C16.2601 17.63 16.2501 17.85 16.2501 18.06C15.1201 18.52 14.1101 18.23 13.1401 17.61Z" fill="#8F8F8F"/>
<path fill-rule="evenodd" clip-rule="evenodd" d="M29.9901 22.8099C28.9901 22.3599 28.9101 21.2599 28.5301 20.4499C28.2401 19.8399 27.9501 19.1099 27.8301 18.3999C27.7001 17.6799 27.3101 17.3799 26.6201 17.3999C26.9201 16.5499 27.5001 16.1299 28.4201 16.2799C28.6001 16.4899 28.6401 16.7799 28.8701 16.9499C29.0701 17.2499 28.8901 17.5499 28.8701 17.8499C28.7601 18.0899 28.5901 18.3699 29.1001 18.2999C30.0801 17.7399 31.2001 17.6899 32.2501 17.3999C32.6801 17.5399 33.0801 17.2799 33.5001 17.2999C33.6101 17.3299 33.6801 17.3999 33.7301 17.5099C33.7601 17.6799 33.7301 17.8299 33.6101 17.9599C33.0101 18.3099 32.3101 18.1799 31.6801 18.3799C30.6401 18.7099 30.2401 19.2199 30.1401 20.2299C30.0901 20.7699 30.1601 21.0899 30.7501 21.1699C30.9701 21.1999 31.1601 21.3399 31.2101 21.5999C30.9701 22.1899 30.5801 22.5999 29.9901 22.8099Z" fill="#919191"/>
<path fill-rule="evenodd" clip-rule="evenodd" d="M29.1 18.3001C28.77 18.4601 29.03 19.0201 28.59 19.0701C28.5 19.0801 28.31 18.9201 28.28 18.8101C28.15 18.3001 28.52 18.0801 28.87 17.8501C28.95 18.0001 29.02 18.1501 29.1 18.3001Z" fill="#979797"/>
<path fill-rule="evenodd" clip-rule="evenodd" d="M33.6001 17.4001C33.1501 17.4201 32.7001 17.8701 32.2501 17.4001C32.6701 17.1501 33.1401 17.1701 33.6001 17.1801C33.6601 17.2301 33.6801 17.2801 33.6601 17.3301C33.6401 17.3801 33.6201 17.4001 33.6001 17.4001Z" fill="#979797"/>
<path fill-rule="evenodd" clip-rule="evenodd" d="M28.87 16.96C28.45 16.91 28.42 16.61 28.42 16.29C28.71 16.41 28.86 16.64 28.87 16.96Z" fill="#979797"/>
<path fill-rule="evenodd" clip-rule="evenodd" d="M33.6001 17.3999C33.6001 17.3199 33.6001 17.2499 33.6001 17.1699C34.0801 17.0199 34.5001 16.9799 34.9001 17.4199C36.0401 18.6999 37.6701 18.1999 39.0801 18.4299C39.7001 18.5299 39.7601 17.4399 40.3601 17.1699C40.3201 17.3899 40.3201 17.6199 40.2401 17.8199C39.9201 18.5999 39.3301 19.4099 40.8401 19.6299C41.1701 19.6799 41.4001 20.0899 41.3801 20.6099C41.3601 21.3699 41.4901 22.2199 42.6601 21.6499C42.9501 21.5099 43.2001 21.5999 43.3001 21.8799C43.4401 22.2599 43.1001 22.3299 42.8601 22.3299C42.2101 22.3199 41.7501 22.6999 41.2501 23.0299C41.2101 22.9999 41.1601 22.9699 41.1201 22.9399C40.7901 22.3899 40.8101 21.7199 40.5201 21.1499C40.3801 20.8799 40.2601 20.4499 40.0001 20.4799C38.8901 20.6199 37.7501 19.7899 36.5901 20.6299C37.0801 20.8299 37.5401 20.9199 37.9801 21.0799C38.2301 21.1699 38.6101 21.2799 38.5801 21.5099C38.4001 22.8399 39.6701 22.7799 40.2701 23.3499C40.3001 23.3999 40.3201 23.4399 40.3501 23.4899C40.3501 23.5599 40.3501 23.6299 40.3501 23.7099C40.0701 23.8499 39.8401 24.2099 39.4501 23.9399C38.9001 23.6499 38.3801 23.3499 37.7101 23.6399C37.3501 23.7899 37.0201 23.5399 36.7501 23.2699C36.5201 22.8999 36.5201 22.2999 35.8501 22.3699C35.7801 22.3699 35.7001 22.3699 35.6301 22.3699C35.1801 22.3499 35.3001 21.5499 34.7301 21.6899C34.5801 21.6899 34.4301 21.6899 34.2801 21.6899C34.1001 20.6099 34.4001 20.0899 35.4201 19.8099C35.6601 19.7399 36.0001 19.8399 36.0501 19.4899C36.0901 19.1599 35.8301 19.0099 35.5801 18.8199C34.9201 18.3199 34.1001 18.0899 33.6001 17.3999Z" fill="#A5A5A5"/>
<path fill-rule="evenodd" clip-rule="evenodd" d="M23.47 14.2501C23.64 14.0201 23.9 14.0301 24.14 14.0201C25.64 13.2401 27.16 12.6201 28.86 13.4501C29.19 13.6101 29.6 13.4601 29.97 13.5301C30.77 13.6401 31.54 13.7601 32.37 13.6001C33.64 13.3601 36.06 14.6701 36.51 15.8401C36.78 16.5301 37.21 16.7301 37.86 16.7301C38.53 16.8101 38.89 15.7301 39.68 16.2201C39.75 16.3201 39.74 16.4101 39.67 16.5101C39.73 17.1301 39.68 17.9401 39.1 18.0801C38.4 18.2401 37.52 18.3101 36.85 17.8201C36.19 17.3301 35.35 17.1401 34.95 16.2101C34.7 15.6301 33.75 15.2701 33.13 15.3101C31.79 15.3901 30.58 14.9701 29.34 14.6701C28.29 14.4101 27.27 14.4301 26.19 14.4901C25.34 14.5201 24.38 14.2801 23.47 14.2501Z" fill="#B7B7B7"/>
<path fill-rule="evenodd" clip-rule="evenodd" d="M39.67 16.51C39.67 16.43 39.67 16.36 39.67 16.28C39.98 15.86 40.44 15.98 40.86 15.96C41.69 16.14 42.24 15.81 42.94 15.29C44.52 14.14 46.21 13.08 48.27 12.96C48.85 12.93 49.4 13.1 49.89 13.37C51.39 14.2 53.06 14.71 54.43 15.78C54.92 16.16 55.66 16.11 56.11 16.62C56.17 16.73 56.18 16.83 56.14 16.95C55.93 17.22 55.64 17.18 55.36 17.16C55.25 17.15 55.15 17.11 55.05 17.06C53.92 16.73 52.81 16.36 51.79 15.73C50.61 14.99 49.2 15.11 47.88 14.95C47.53 14.91 47.3 15.26 47.08 15.51C46.57 16.07 45.95 16.37 45.19 16.28C44.06 16.15 43.17 16.63 42.35 17.32C41.91 17.42 41.57 17.2 41.24 16.95C40.75 16.69 40.26 16.43 39.67 16.51Z" fill="#BCBCBC"/>
<path fill-rule="evenodd" clip-rule="evenodd" d="M41.25 16.96C41.62 17.03 42 17.11 42.37 17.18C42.7 16.67 43.3 16.57 43.78 16.3C44.02 16.27 44.2501 16.29 44.4001 16.51C44.1501 16.66 43.8401 16.75 43.6501 16.96C42.7601 17.89 41.81 17.85 40.8 17.19C40.94 17.11 41.1 17.03 41.25 16.96Z" fill="#A5A5A5"/>
<path fill-rule="evenodd" clip-rule="evenodd" d="M19.6501 14.4801C20.7101 14.5101 21.5701 13.9101 22.1901 13.2301C23.5901 11.6901 25.2101 11.4101 27.1001 11.9001C27.7501 12.0701 28.3001 12.0601 28.8201 11.4801C29.4501 10.7701 30.2001 10.6101 30.9101 11.4401C31.3201 11.9201 31.7001 12.0801 32.3401 11.6701C33.4201 10.9801 34.6901 11.2801 35.8301 11.4101C37.6301 11.6201 39.1801 11.1401 40.1101 9.51014C40.8501 8.22014 42.0901 8.00014 43.2601 8.12014C44.5001 8.25014 45.8001 8.71014 45.9801 10.3201C46.0101 10.6201 46.1201 10.8201 46.4301 10.8601C46.4801 10.8501 46.5401 10.8501 46.5901 10.8401C47.2001 11.0101 47.7701 11.1101 48.3101 10.5601C48.6001 10.2701 49.1401 10.2001 49.4601 10.4701C50.7501 11.5101 52.1801 12.3601 53.4601 13.4101C53.6301 13.9101 54.2001 14.2901 53.9101 14.9201C52.4401 14.9301 51.4601 13.9601 50.4701 13.0901C49.3001 12.0601 48.7501 11.9701 47.6401 13.0701C47.1801 13.5301 46.7001 13.5001 46.2101 13.4201C45.7001 13.3401 45.9301 12.8201 45.8401 12.4901C45.5501 11.4001 44.6601 10.7301 43.9801 9.89014C44.3101 10.3201 44.6401 10.7201 44.5501 11.3301C44.4401 12.0501 43.9001 12.1101 43.4001 12.3601C42.8801 12.6201 42.5901 13.2201 42.1201 13.6001C40.9901 14.5101 40.7101 14.4901 40.0901 13.2001C39.8301 12.6501 39.4601 12.6701 38.9801 12.8201C37.8401 13.1801 36.6501 13.1901 35.5601 12.7801C34.0701 12.2201 32.6801 12.1401 31.2801 12.9601C31.2301 12.9401 31.1801 12.9201 31.1301 12.9001C31.1001 12.8701 31.0701 12.8501 31.0501 12.8201C29.8201 11.1001 28.2201 12.2801 26.7901 12.3201C25.6501 12.3501 24.3201 11.8401 23.4101 12.8001C22.7801 13.4601 22.1701 14.0501 21.3401 14.3801C20.7901 14.5901 20.2301 14.9701 19.6501 14.4801Z" fill="#CACACA"/>
<path fill-rule="evenodd" clip-rule="evenodd" d="M30.0001 13.8101C28.9201 14.1501 28.0201 13.3401 26.9901 13.3401C26.7501 13.3401 26.4801 13.1301 26.2901 13.3801C25.7301 14.1401 24.9301 14.0501 24.1501 14.0301C24.4801 12.8201 25.3201 12.7501 26.4301 12.7501C27.4501 12.7501 28.5201 12.8901 29.5401 12.5901C30.1101 12.4201 30.5301 13.1201 31.1301 12.9101C31.2101 13.0001 31.2401 13.1001 31.2101 13.2201C30.9001 13.6301 30.6101 14.0401 30.0001 13.8101Z" fill="#BEBEBE"/>
<path fill-rule="evenodd" clip-rule="evenodd" d="M10.2001 15.16C9.8001 15.53 9.3001 15.33 8.8501 15.38C9.1801 14.59 9.6901 14.86 10.2001 15.16Z" fill="#B7B7B7"/>
<path fill-rule="evenodd" clip-rule="evenodd" d="M9.28997 16.05C9.43997 16.44 9.68997 16.75 10.24 16.9C9.74997 17.21 9.40997 17.41 9.06997 17.63C8.84997 17.77 8.64997 17.89 8.79997 18.25C9.04997 18.83 8.69997 19.16 7.81997 19.46C7.11997 19.7 6.72997 19.4 6.46997 18.85C6.33997 18.56 6.56997 18.29 6.80997 18.08C6.91997 18.51 6.95997 19.07 7.50997 19.09C8.17997 19.13 8.06997 18.4301 8.29997 18.0401C8.68997 17.4101 8.10997 16.29 9.28997 16.05Z" fill="#9F9F9F"/>
<path fill-rule="evenodd" clip-rule="evenodd" d="M15.4101 12.47C15.3301 12.74 15.1901 12.9 14.9301 12.9C14.5701 12.9 14.3901 12.64 14.3401 12.33C14.3001 12.11 14.5101 11.99 14.7101 12.06C14.9701 12.15 15.3101 12.15 15.4101 12.47Z" fill="#717171"/>
<path fill-rule="evenodd" clip-rule="evenodd" d="M33.6001 17.4001C34.5701 17.4901 35.1801 18.3201 36.0601 18.6301C36.4401 18.7701 36.5001 19.3001 36.4801 19.7201C36.4601 19.9901 36.2301 20.1201 36.0001 20.0801C34.7501 19.9001 34.5301 20.8001 34.2801 21.6701C34.4701 22.4701 34.0601 23.2101 33.7201 23.7801C33.2401 24.6101 32.4301 24.0801 31.7901 23.7001C31.2801 23.2201 30.2001 23.8901 30.0001 22.8001C30.2301 22.2801 30.5001 21.8001 31.1301 21.6701C31.3001 21.4201 31.5301 21.1801 31.8301 21.2201C32.8001 21.3401 33.2601 20.6901 33.7201 20.0401C33.8501 19.9101 34.0301 19.8601 34.1801 19.7501C34.4901 19.5401 35.1101 19.5501 35.0401 19.0801C34.9801 18.6401 34.4901 18.4401 34.0401 18.3401C33.9701 18.3201 33.9101 18.2801 33.8401 18.2401C33.7001 18.1401 33.6101 18.0101 33.5901 17.8401C33.6001 17.7101 33.6001 17.5601 33.6001 17.4001Z" fill="#979797"/>
<path fill-rule="evenodd" clip-rule="evenodd" d="M56.32 17.63C55.2 17.27 54.09 17.33 52.94 17.59C51.92 17.83 51.6 17.54 51.24 16.5C51.21 16.42 51.06 16.31 51.03 16.32C50.21 16.76 49.53 16.12 48.78 16.05C48.04 15.98 48.03 16 47.16 17.6C47.01 16.4 45.99 17.21 45.52 16.72C45.54 16.67 45.56 16.62 45.58 16.57C45.97 16.23 46.47 16.04 46.78 15.6C46.88 15.45 47.07 15.33 47.24 15.3C48.75 15.02 50.47 14.84 51.66 15.63C52.81 16.39 54 16.56 55.19 16.94C55.56 17.13 55.99 17.07 56.37 17.19C56.47 17.24 56.54 17.31 56.59 17.4C56.59 17.6 56.55 17.74 56.32 17.63Z" fill="#A8A8A8"/>
<path fill-rule="evenodd" clip-rule="evenodd" d="M43.9501 19.2101C43.8701 19.4401 43.7801 19.6601 43.7001 19.8901C43.4101 19.9701 43.1101 20.0201 42.8401 20.1401C42.1901 20.4201 41.7801 20.0501 41.3601 19.6501C40.8501 19.1801 41.3901 18.5701 41.1401 18.0601C41.1401 18.0501 41.3001 17.9601 41.3901 17.9001C41.7001 18.6601 42.8301 17.9701 43.1001 18.8901C43.2501 19.4001 43.6401 19.0701 43.9401 18.9701C43.9401 19.0601 43.9501 19.1301 43.9501 19.2101Z" fill="#868686"/>
<path fill-rule="evenodd" clip-rule="evenodd" d="M56.3201 17.63C56.3901 17.56 56.4701 17.48 56.5401 17.41C57.1601 17.16 57.8001 17.36 58.4301 17.3C59.0801 17.28 59.7201 17.05 60.3901 17.26C60.7201 17.36 61.0501 17.26 61.2201 16.89C61.3001 16.75 61.4101 16.64 61.5201 16.53C61.9801 16.34 62.2501 15.78 62.8501 15.83L62.8601 15.84C62.4701 17.51 61.5001 18.15 59.8001 18.03C58.6301 17.94 57.4301 18.24 56.3201 17.63Z" fill="#B1B1B1"/>
<path fill-rule="evenodd" clip-rule="evenodd" d="M65.0901 18.5399C64.6101 18.6999 64.3001 18.5599 64.0401 18.0999C63.7801 17.6499 63.4001 17.4999 63.0601 18.0799C62.9101 18.0799 62.7601 18.0799 62.6101 18.0899C63.1901 16.5899 63.3201 16.5799 64.4001 17.8699C64.6001 18.1199 64.9901 18.1899 65.0901 18.5399Z" fill="#787878"/>
<path fill-rule="evenodd" clip-rule="evenodd" d="M35.8501 22.35C36.0701 22.12 36.4001 21.94 36.6201 22.12C36.9801 22.4 36.8201 22.86 36.7501 23.25C36.3601 23.04 36.0601 22.74 35.8501 22.35Z" fill="#979797"/>
<path fill-rule="evenodd" clip-rule="evenodd" d="M34.7201 21.68C35.5801 21.16 35.3201 22.13 35.6201 22.36C34.8901 22.71 34.7301 22.3 34.7201 21.68Z" fill="#979797"/>
<path fill-rule="evenodd" clip-rule="evenodd" d="M44.4001 16.5101C44.1701 16.5101 43.9501 16.5101 43.7201 16.5101C44.3901 15.9401 45.1301 16.0301 45.5201 16.7301L45.5101 16.7401C45.1301 16.7501 44.7501 16.7101 44.4001 16.5101Z" fill="#A8A8A8"/>
<path fill-rule="evenodd" clip-rule="evenodd" d="M41.2501 23.0301C41.0201 23.3101 40.7101 23.4401 40.3501 23.4801L40.3401 23.4701C40.3801 22.8101 40.7201 22.7501 41.2301 23.0201L41.2501 23.0301Z" fill="#A5A5A5"/>
<path fill-rule="evenodd" clip-rule="evenodd" d="M39.4501 23.93C39.7501 23.85 40.0501 23.78 40.3501 23.7C40.1201 24.07 39.8701 24.33 39.4501 23.93Z" fill="#979797"/>
<path fill-rule="evenodd" clip-rule="evenodd" d="M63.2901 8.63001C63.4001 9.32001 63.9001 9.83001 64.1901 10.43C64.6901 11.19 64.4901 11.92 63.6501 12.43C62.8901 12.89 62.1301 12.74 61.8001 11.92C61.4301 11.02 61.0101 11.17 60.4901 11.69C59.9701 12.22 59.4401 12.42 58.8201 11.9C58.4301 11.57 58.1101 11.68 57.7101 11.89C56.3701 12.56 54.9601 12.79 53.4801 12.34C53.0301 12.2 52.6301 12.06 52.4201 11.61C52.4101 10.98 52.8401 10.78 53.3001 10.95C54.9601 11.54 56.1401 10.51 57.4801 9.88001C58.6601 9.33001 59.2201 7.96001 60.6001 7.74001C60.9901 7.68001 60.8601 7.37001 60.7401 7.12001C60.4901 6.61001 60.2501 6.05001 59.5201 6.33001C58.8501 6.57001 58.2001 6.86001 57.4701 6.60001C57.0501 6.41001 56.7901 6.06001 56.5401 5.70001C56.4601 5.63001 56.3901 5.55001 56.3201 5.48001C56.2501 5.32001 56.1701 5.17001 56.1001 5.01001C56.6201 5.18001 57.1901 5.22001 57.5101 5.78001C57.7001 6.12001 58.0201 6.16001 58.3801 6.02001C58.7601 5.87001 59.1301 5.71001 59.5201 5.58001C60.7001 5.19001 61.3801 5.45001 62.1801 6.59001C62.5701 6.96001 62.3901 7.61001 62.8601 7.94001C62.8501 8.28001 63.0101 8.50001 63.2901 8.63001Z" fill="#DADADA"/>
<path fill-rule="evenodd" clip-rule="evenodd" d="M56.5401 5.70999C56.8401 5.93999 57.1401 6.15999 57.4401 6.38999C58.0701 6.62999 58.6901 6.52999 59.2801 6.30999C59.8601 6.08999 60.2401 6.29999 60.4601 6.80999C60.6801 7.31999 60.4001 7.59999 59.9601 7.87999C59.0701 8.44999 58.4601 9.34999 57.5401 9.92999C56.6501 10.5 55.6901 10.88 54.7401 11.26C54.0601 11.53 53.4301 10.92 52.6801 10.98C51.8601 11.05 51.6801 10.25 51.5101 9.57999C51.3801 9.06999 51.0401 8.86999 50.5001 8.93999C50.0301 8.99999 49.5801 9.14999 49.1101 9.28999C47.0801 9.88999 47.4601 9.90999 46.4201 8.62999C46.5801 7.04999 46.1001 6.19999 44.2901 5.97999C43.2601 5.84999 43.0801 4.44999 42.8201 3.45999C42.8901 3.37999 42.9701 3.30999 43.0401 3.22999C43.1201 3.12999 43.2001 3.13999 43.2701 3.22999C43.3701 4.28999 44.0701 5.05999 44.9501 5.08999C46.4301 5.13999 46.6201 5.28999 46.8301 6.69999C46.8801 7.02999 46.8601 7.36999 46.8701 7.70999C46.8901 8.55999 47.3701 8.89999 48.0001 8.35999C48.9301 7.56999 50.1901 8.16999 51.1001 7.43999C51.2001 7.35999 51.6601 7.48999 51.7101 7.60999C52.1601 8.92999 53.7701 8.67999 54.4701 9.69999C54.8301 10.21 55.5001 10.09 56.0001 9.73999C56.7901 9.16999 58.1901 9.25999 58.1301 7.76999C58.1101 7.37999 57.8601 7.19999 57.5801 6.97999C57.1301 6.63999 56.6301 6.32999 56.5401 5.70999Z" fill="#E0E0E0"/>
<path fill-rule="evenodd" clip-rule="evenodd" d="M43.27 3.23014C43.19 3.23014 43.12 3.23014 43.04 3.23014C43.3 2.81014 43.27 2.35014 43.27 1.89014C43.61 2.33014 43.6 2.78014 43.27 3.23014Z" fill="#DCDCDC"/>
<path fill-rule="evenodd" clip-rule="evenodd" d="M62.8401 7.96011C62.1001 7.77011 62.0301 7.24011 62.1601 6.61011C63.1401 6.69011 62.5901 7.52011 62.8401 7.96011Z" fill="#C7C7C7"/>
<path fill-rule="evenodd" clip-rule="evenodd" d="M62.84 15.8301C62.53 16.2101 62.21 16.5701 61.72 16.7301C61.69 15.2201 62.66 14.3601 63.75 14.9301C63.98 15.1001 63.97 15.3601 63.98 15.6001C63.56 15.4701 63.09 15.0701 62.84 15.8301Z" fill="#B4B4B4"/>
<path fill-rule="evenodd" clip-rule="evenodd" d="M66.4501 20.3201C66.3101 19.7201 66.2001 19.0701 65.3401 19.1801C65.3301 19.0401 65.3301 18.8901 65.3201 18.7501C66.1501 18.7201 66.9801 19.1301 67.8101 18.7601C67.6401 19.5301 67.3001 20.1501 66.4501 20.3201Z" fill="#767676"/>
<path fill-rule="evenodd" clip-rule="evenodd" d="M31.8001 6.16015C32.1401 5.50015 32.0201 5.10015 31.2101 5.03015C30.6601 4.98015 30.1101 4.88015 29.5601 4.80015C29.5401 4.35015 29.5101 3.81015 30.0501 3.69015C31.2901 3.41015 32.5001 2.77015 33.8301 3.24015C34.0601 3.55015 34.6101 3.67015 34.4401 4.21015C34.1301 5.22015 34.7601 5.10015 35.3401 4.94015C35.7701 4.82015 36.1501 4.55015 36.5701 4.42015C37.8401 4.01015 38.9401 4.51015 40.0001 5.13015C40.2801 5.29015 40.3501 5.51015 40.1601 5.78015C40.0001 5.99015 39.8701 6.22015 39.9701 6.49015C40.3101 7.40015 39.6901 7.50015 39.0601 7.59015C38.8801 7.62015 38.6301 7.55015 38.5201 7.65015C36.7301 9.33015 34.4301 8.47015 32.3901 8.82015C31.4801 8.97015 30.5501 9.37014 29.5601 9.23014C29.0501 9.16014 28.8001 8.98015 28.6801 8.55015C28.5501 8.08015 28.4401 7.59015 28.8601 7.18015C29.0001 7.06015 29.1101 7.00015 29.3401 7.09015C30.4301 7.55015 31.3201 7.19015 31.8001 6.16015Z" fill="#E4E4E4"/>
<path fill-rule="evenodd" clip-rule="evenodd" d="M52.5001 11.56C54.4101 12.42 56.2701 12.59 58.0001 11.14C58.3701 10.83 58.5901 11.01 58.8101 11.34C59.2801 12.07 59.7801 12.31 60.2601 11.35C60.5801 10.7 61.2201 10.86 61.7301 10.78C62.0801 10.72 62.1201 11.09 62.1201 11.43C62.1201 12.38 62.6701 12.73 63.4301 12.19C63.9901 11.8 64.5301 11.28 64.2001 10.44C64.3501 10.44 64.5001 10.44 64.6501 10.43C65.1101 10.98 65.6001 11.5 64.7801 12.19C63.9001 12.93 65.0701 13.28 65.1701 13.9C64.2501 14.38 63.5601 12.79 62.6301 13.58C62.1501 13.38 61.6601 13.24 61.1701 13.07C60.2801 12.76 59.9101 13.18 59.7001 13.93C59.5301 14.51 59.3801 15.09 59.0901 15.61C58.6001 16.52 57.6501 16.54 56.8301 15.93C55.2801 14.78 53.9601 13.34 52.1501 12.52C51.3501 12.16 50.6901 11.49 50.0301 10.89C49.3501 10.28 48.6901 10.38 48.1001 10.74C47.5101 11.1 47.0201 11.15 46.4301 10.87C46.5401 10.35 45.9101 9.82004 46.4301 9.29004C46.4801 9.85004 46.5301 10.41 47.3301 9.97004C47.4301 9.81004 47.5901 9.74004 47.7601 9.68004C48.1901 9.59004 48.6401 9.66004 49.0801 9.52004C49.8801 9.27004 50.5501 9.54004 51.0601 10.17C51.4201 10.61 51.8701 10.92 52.3101 11.26C52.3601 11.36 52.4301 11.46 52.5001 11.56Z" fill="#D6D6D6"/>
<path fill-rule="evenodd" clip-rule="evenodd" d="M52.5001 11.5601H52.3901H52.2801C51.8601 11.0401 51.3001 10.6501 50.9901 10.0301C50.7301 9.51015 50.1601 9.45015 49.7101 9.54015C49.0701 9.67015 48.3801 9.65015 47.7801 9.99015C47.6301 9.99015 47.4801 9.99015 47.3301 9.99015C46.7301 9.74015 46.6701 9.13015 46.4301 8.64015C47.2701 9.46015 48.1601 9.56015 49.1901 8.92015C49.5501 8.70015 50.0501 8.69015 50.4901 8.60015C51.3301 8.43015 51.8001 8.79015 51.9301 9.63015C52.0501 10.4801 52.4001 11.0001 53.4201 10.7901C54.1701 10.6301 54.9301 11.3001 55.7201 10.6901C56.8101 9.85015 58.2701 9.49015 59.0501 8.20015C59.2101 7.93015 59.5501 7.75015 59.8301 7.59015C60.0801 7.44015 60.4601 7.39015 60.3001 6.98015C60.1501 6.60015 59.8801 6.42015 59.4101 6.51015C58.7601 6.63015 58.0901 6.78015 57.4601 6.39015C57.8701 6.36015 58.3401 6.47015 58.6701 6.29015C59.9301 5.61015 60.6901 5.99015 61.3501 7.19015C61.7001 7.83015 61.4701 8.08015 60.9901 8.13015C60.2201 8.21015 59.8301 8.61015 59.2501 9.08015C58.3801 9.78015 57.4401 10.6201 56.2701 10.9501C55.8101 11.0801 55.3401 11.1601 54.9101 11.4301C54.4701 11.7101 53.9801 11.8501 53.5101 11.3501C53.1201 10.9501 52.7501 11.1101 52.5001 11.5601Z" fill="#DEDEDE"/>
<path fill-rule="evenodd" clip-rule="evenodd" d="M22.64 10.6501C22.55 10.6501 22.51 10.6601 22.48 10.6501C21.98 10.3701 20.98 10.8901 20.97 9.95015C20.97 9.28015 21.63 8.95015 22.36 9.00015C22.43 9.00015 22.51 8.97015 22.57 8.93015C23.17 8.47015 23.76 8.58015 24.32 8.98015C24.53 9.13015 24.59 9.36015 24.41 9.56015C23.91 10.1001 23.5 10.8001 22.64 10.6501Z" fill="#E4E4E4"/>
<path fill-rule="evenodd" clip-rule="evenodd" d="M63.7501 14.9301C63.1701 14.7301 62.6701 14.7001 62.5501 15.4901C62.4701 16.0301 61.8301 16.2001 61.7201 16.7301C61.6401 16.8101 61.5701 16.8801 61.5001 16.9501C61.1101 17.4201 60.6501 17.6901 60.0301 17.3901C59.4801 17.1201 59.0201 17.3001 58.5701 17.6201C57.8901 17.5801 57.1901 17.7501 56.5501 17.4001C56.4801 17.4001 56.4001 17.4001 56.3301 17.4001C56.2101 17.2801 55.9601 17.2101 56.1001 16.9501C56.1001 16.8701 56.1001 16.8001 56.1001 16.7201C56.1701 16.6401 56.2701 16.6001 56.3701 16.5801C57.1401 16.7901 57.9301 17.2801 58.6001 16.3701C58.7301 16.2601 58.8601 16.1901 59.0301 16.2701C59.2501 16.3101 59.4701 16.3401 59.6801 16.3801C60.1301 16.4701 60.6001 16.8801 61.0301 16.4501C61.4301 16.0501 60.8601 15.7201 60.8601 15.3401C60.8601 15.0601 60.6101 14.5601 60.9101 14.5501C61.5801 14.5301 62.0701 13.7501 62.7901 14.1301C63.1101 14.3001 63.4301 14.5001 63.7501 14.6801C63.7501 14.7801 63.7501 14.8501 63.7501 14.9301Z" fill="#BFBFBF"/>
<path fill-rule="evenodd" clip-rule="evenodd" d="M68.6601 15.6001C67.2701 15.6301 68.2401 14.4601 67.7001 14.0001C67.5001 13.8301 67.8401 13.0301 68.4501 13.0001C68.9301 12.9801 69.4101 13.0801 69.8901 13.1701C70.0101 13.1901 70.1601 13.3301 70.1901 13.4401C70.4001 14.1501 69.2601 15.6001 68.6601 15.6001Z" fill="#D1D1D1"/>
<path fill-rule="evenodd" clip-rule="evenodd" d="M59.02 16.2801C58.94 16.3601 58.87 16.4301 58.79 16.5101C57.97 16.9101 57.16 16.9401 56.4 16.4001C56.15 16.2201 55.86 16.1801 55.58 16.1001C55.48 16.0601 55.39 16.0101 55.3 15.9401C54.63 15.1201 53.95 14.3101 53.16 13.5901C52.3 12.9701 51.46 12.3401 50.58 11.7501C50.24 11.5201 49.88 11.3501 49.62 11.0201C49.21 10.4801 48.67 10.5301 48.29 10.9701C47.59 11.7601 47.02 11.4301 46.41 10.8901C47.24 11.1901 47.82 10.4301 48.6 10.3401C49.56 10.2301 50.17 10.5901 50.8 11.1201C51.47 11.6801 52.03 12.3701 53.03 12.4501C53.55 12.4901 53.85 13.0701 54.22 13.4201C54.79 13.9601 55.14 14.7801 56.19 14.6201C56.53 14.5701 56.74 15.0801 56.89 15.4201C57.12 15.9601 57.52 16.1001 58.06 16.0601C58.58 16.0201 58.7 15.6901 58.83 15.2601C59.05 14.5201 59.33 13.8001 59.62 13.0801C59.89 12.4201 60.42 12.3201 61 12.6101C61.56 12.8901 62.08 13.2601 62.62 13.5901C61.11 13.3501 60.81 13.5501 60.05 15.0101C59.81 15.4801 59.37 15.8501 59.02 16.2801Z" fill="#D2D2D2"/>
<path fill-rule="evenodd" clip-rule="evenodd" d="M33.8401 20.1301C33.5501 21.0501 33.1601 21.8001 31.9601 21.5201C31.7101 21.4601 31.4001 21.6201 31.1201 21.6801C31.0901 21.6501 31.0701 21.6301 31.0401 21.6001C30.6301 21.2101 29.5801 21.8301 29.6101 20.7801C29.6501 19.3801 30.3701 18.3401 31.4001 18.0801C32.1201 17.9001 32.8501 17.7701 33.6001 17.8401C33.6801 17.9101 33.7601 17.9801 33.8301 18.0501C33.8001 18.0901 33.7701 18.1401 33.7401 18.1801C33.3301 18.4801 32.8001 18.3101 32.3701 18.5301C32.2701 18.5701 32.1701 18.5901 32.0701 18.6101C31.3401 18.7601 31.0401 19.3601 30.7001 19.9101C30.3201 20.5401 30.7401 20.6401 31.2301 20.6801C31.3701 20.6901 31.5601 20.7401 31.6201 20.5901C31.9901 19.6901 32.6901 19.7401 33.4401 19.9201C33.5501 19.9201 33.6501 19.9401 33.7401 19.9801C33.7701 20.0501 33.8101 20.0901 33.8401 20.1301Z" fill="#808080"/>
<path fill-rule="evenodd" clip-rule="evenodd" d="M41.2401 23.02C40.8601 23.02 40.5301 23.1 40.3501 23.47C39.3401 23.64 38.7101 22.81 37.9401 22.44C37.3301 22.14 38.4101 22.04 38.4101 21.57C37.6001 21.36 36.8301 20.97 35.7401 20.99C36.3601 20.22 37.2601 19.4 37.8201 19.78C38.7601 20.43 39.9301 19.32 40.5701 20.35C41.0401 21.15 41.3601 22.05 41.2401 23.02Z" fill="#B1B1B1"/>
<path fill-rule="evenodd" clip-rule="evenodd" d="M41.02 16.2799C40.57 16.2799 40.12 16.2799 39.67 16.2799C39.28 16.2699 38.93 16.3499 38.79 16.7799C38.63 17.2599 38.23 17.1699 37.87 17.1799C37.03 16.7099 36.38 16.0899 36.17 15.0999C36.11 14.8299 35.97 14.6099 35.69 14.5399C34.52 14.2399 33.41 13.6699 32.15 13.7499C31.7 13.7799 31.33 13.6799 31.29 13.1299C31.69 12.7299 32.18 12.6199 32.72 12.6499C33.76 12.6999 34.79 12.7999 35.81 13.0599C36.61 13.2599 37.26 13.6299 37.71 14.3199C38.1 14.9199 38.58 15.1999 39.36 15.2199C40.03 15.2199 40.92 15.2499 41.02 16.2799Z" fill="#BEBEBE"/>
<path fill-rule="evenodd" clip-rule="evenodd" d="M31.3501 13.13C32.0901 13.91 33.1201 13.45 33.9901 13.75C34.4601 13.91 34.9801 14 35.4801 14.14C36.1801 14.34 36.6001 14.48 36.6301 15.42C36.6501 16.02 37.4301 16.59 37.8801 17.17C36.9901 17.04 36.2701 16.8 36.0901 15.71C35.9901 15.14 35.4401 14.85 34.8401 14.58C33.4601 13.97 32.0501 13.98 30.6101 14C30.3701 14 30.1601 13.99 30.0001 13.79C30.5101 13.79 30.7201 13.29 31.1201 13.12C31.2001 13.03 31.2701 13.03 31.3501 13.13Z" fill="#BCBCBC"/>
<path fill-rule="evenodd" clip-rule="evenodd" d="M31.3501 13.1299C31.2801 13.1299 31.2001 13.1299 31.1301 13.1299C31.1301 13.0499 31.1301 12.9799 31.1301 12.9099C32.2101 11.9199 33.3501 11.6099 34.8101 12.1899C36.1901 12.7399 37.6601 13.0299 39.1601 12.3299C39.9201 11.9699 40.4601 12.3799 40.5201 13.3899C40.5701 14.1899 40.9101 14.1099 41.3601 13.7899C41.8101 13.4599 42.2901 13.1299 42.6201 12.6899C42.9501 12.2499 42.9001 11.3999 43.8601 11.9299C44.0701 12.0399 44.1901 11.6799 44.1801 11.4499C44.1601 11.1199 44.5001 10.6799 43.9701 10.4699C43.5801 10.3099 43.1501 10.1999 43.1801 9.66993C43.2001 9.41993 43.4601 9.34993 43.6901 9.30993C44.2701 9.21993 44.4401 9.64993 44.6901 10.0299C44.9901 10.4999 45.3101 10.9899 45.7201 11.3499C46.1901 11.7599 46.4501 12.1399 46.2101 12.7699C46.1201 12.9999 46.0701 13.3299 46.4901 13.3299C46.7701 13.3299 47.0501 13.4299 47.2501 13.0399C47.9101 11.7199 49.5701 11.4699 50.4801 12.5799C51.3901 13.6899 52.7201 14.1599 53.8601 14.9099C54.6401 14.7599 54.9701 15.4099 55.4401 15.8099C55.6901 16.1599 56.5201 15.9399 56.3401 16.7099C56.2601 16.7099 56.1901 16.7099 56.1101 16.7099C54.0101 16.1399 52.2401 14.8499 50.3101 13.9299C48.5701 13.0999 47.0701 13.1099 45.5301 14.2899C45.4201 14.3799 45.2601 14.3999 45.1301 14.4799C44.2901 14.9999 43.2101 15.0499 42.6601 16.1299C42.3801 16.6899 41.6101 16.5599 41.0401 16.2599C40.4201 15.7199 39.7401 15.3399 38.8801 15.5899C38.5701 15.6799 38.2601 15.7299 38.0901 15.4099C36.5101 12.6399 33.8701 13.0599 31.3501 13.1299Z" fill="#C5C5C5"/>
<path fill-rule="evenodd" clip-rule="evenodd" d="M45.5301 16.7199C45.0001 16.0699 44.3701 16.1799 43.7301 16.4999C43.2801 16.7199 42.8301 16.9499 42.3801 17.1699C42.9301 15.8799 44.1301 15.9099 45.1801 15.9499C46.0601 15.9799 46.5801 15.5999 47.0901 15.0399C47.3101 14.7999 47.4701 14.4199 47.8701 14.4899C49.1501 14.7299 50.5401 14.6199 51.6701 15.2599C52.8201 15.9099 54.1101 16.2199 55.2001 16.9499C54.4801 17.1099 53.7601 16.7199 53.0201 16.9999C52.5701 17.1699 52.3901 16.6899 52.1801 16.3999C51.7301 15.7499 51.1401 15.5099 50.3501 15.5899C49.6301 15.6599 48.9101 15.7799 48.1601 15.4499C47.7101 15.2499 47.0301 15.4599 46.7701 15.9299C46.4801 16.4799 46.0401 16.6199 45.5301 16.7199Z" fill="#B4B4B4"/>
<path fill-rule="evenodd" clip-rule="evenodd" d="M56.1001 16.96C56.1801 17.11 56.2501 17.26 56.3301 17.41C55.9301 17.32 55.5201 17.25 55.2001 16.96C55.5001 16.96 55.8001 16.96 56.1001 16.96Z" fill="#B4B4B4"/>
<path fill-rule="evenodd" clip-rule="evenodd" d="M55.42 15.8301C54.83 15.6501 54.32 15.3201 53.84 14.9301C53.62 14.4801 53.39 14.0301 53.17 13.5801C54.18 14.0701 55.06 14.6901 55.42 15.8301Z" fill="#CDCDCD"/>
<path fill-rule="evenodd" clip-rule="evenodd" d="M33.83 18.07C34.63 17.93 35.03 18.55 35.55 18.96C35.9 19.24 35.65 19.41 35.41 19.53C34.91 19.78 34.44 20.1 33.85 20.13L33.8 20.08C33.74 19.99 33.72 19.89 33.74 19.79C34.42 19.26 33.87 18.67 33.82 18.1L33.83 18.07Z" fill="#808080"/>
<path fill-rule="evenodd" clip-rule="evenodd" d="M58.5701 17.6299C58.8001 17.2899 59.0301 16.86 59.5201 17.1C60.2301 17.45 60.8601 17.27 61.4901 16.95C61.5001 17.79 60.8601 17.7 60.4001 17.59C59.7701 17.44 59.1801 17.5499 58.5701 17.6299Z" fill="#B4B4B4"/>
<path fill-rule="evenodd" clip-rule="evenodd" d="M47.77 9.98013C48.63 9.22013 49.7 9.26013 50.74 9.26013C50.92 9.26013 51.21 9.47013 51.25 9.63013C51.41 10.3801 52.09 10.8401 52.28 11.5601C52.08 11.4601 51.81 11.4001 51.7 11.2401C50.7 9.80013 49.31 9.65013 47.77 9.98013Z" fill="#DADADA"/>
<path fill-rule="evenodd" clip-rule="evenodd" d="M56.32 16.73C56.2 16.25 55.45 16.4 55.42 15.83C55.9 15.82 56.36 15.81 56.73 16.22C57.33 16.87 58.16 16.02 58.8 16.51C58.21 17.57 57.65 17.62 56.32 16.73Z" fill="#CDCDCD"/>
<path fill-rule="evenodd" clip-rule="evenodd" d="M33.62 20.13C33.32 20.46 33.02 20.23 32.71 20.16C32.41 20.09 32.04 20.09 32.09 20.53C32.22 21.65 31.64 21.24 31.12 21.02C30.49 19.92 30.64 19.49 32.04 18.33C32.11 18.32 32.18 18.31 32.25 18.3C32.62 18.13 33 18.16 33.37 18.29C33.76 18.82 32.81 19.5 33.57 19.99C33.58 20.03 33.6 20.08 33.62 20.13Z" fill="#535353"/>
<path fill-rule="evenodd" clip-rule="evenodd" d="M32.03 18.3201C31.62 19.1801 30.69 19.8601 31.11 21.0101C30.73 20.6101 30.18 21.5501 29.99 20.9701C29.88 20.6301 30.21 20.0701 30.46 19.6901C30.84 19.0901 31.13 18.3301 32.03 18.3201Z" fill="#6B6B6B"/>
<path fill-rule="evenodd" clip-rule="evenodd" d="M33.3801 18.5199C33.0501 18.1899 32.6301 18.3499 32.2501 18.2999C32.7301 17.9199 33.2901 18.1499 33.8201 18.0999C33.8401 18.1299 33.8601 18.1699 33.8801 18.1899C34.8701 19.0599 34.8701 19.0599 33.8401 19.8899C33.4301 19.6299 33.5501 19.1799 33.4701 18.8099C33.4201 18.7099 33.4001 18.6099 33.3801 18.5199Z" fill="#6D6D6D"/>
<path fill-rule="evenodd" clip-rule="evenodd" d="M33.58 18.54C34 18.92 33.76 19.43 33.82 19.88C33.81 19.94 33.8 20.01 33.78 20.07C33.72 20.09 33.66 20.1 33.61 20.12L33.55 20.06C33.11 19.56 33.25 19.05 33.58 18.54Z" fill="#535353"/>
<path fill-rule="evenodd" clip-rule="evenodd" d="M33.5801 18.54C33.5701 19.05 33.5701 19.56 33.5601 20.07C32.2001 19.71 32.9201 19.1 33.3701 18.52C33.4501 18.53 33.5101 18.53 33.5801 18.54Z" fill="#323232"/>
</g>
<defs>
<clipPath id="clip0_305_978">
<rect width="78.58" height="27.96" fill="white"/>
</clipPath>
</defs>
</svg>
