<svg width="212" height="275" viewBox="0 0 212 275" fill="none" xmlns="http://www.w3.org/2000/svg">
<path d="M207.051 168.113C204.152 135.561 200.662 103.038 198.529 70.4399C197.926 61.2279 197.435 52.0109 197.095 42.7889C197.003 40.2899 196.986 37.7689 196.973 35.2399C197.255 33.1239 197.194 30.9409 197.219 28.8589C197.273 24.4049 197.382 19.9789 197.571 15.5279C197.71 12.2309 198.693 7.87294 196.596 4.85694C194.726 2.16794 191.153 2.09994 188.432 0.441945C186.584 -0.684056 183.802 0.494944 183.278 2.21694C183.393 1.83994 179.679 3.02894 179.317 3.24294C178.375 3.80094 177.666 4.56094 177.273 5.47694C176.281 7.78594 177.651 9.99894 179.122 11.8869C179.85 12.8219 181.75 12.2579 181.337 11.0969C180.863 9.76394 179.7 7.55894 182.008 6.95294C182.769 6.75294 183.993 7.14494 184.839 7.06694C185.172 7.03694 185.482 6.98394 185.782 6.92094C186.779 7.43694 188.477 7.60194 189.171 8.25994C189.695 8.75694 189.173 10.6699 189.09 11.4789C188.871 13.5959 188.806 15.7199 188.893 17.8449C189.051 21.7109 189.43 25.5639 189.523 29.4379C189.6 32.6829 189.219 36.0669 190.149 39.2359C190.157 39.4559 190.166 39.6769 190.173 39.8969C190.183 40.2129 190.197 40.5289 190.207 40.8439C182.511 39.9029 173.53 41.8049 166.048 43.2369C162.14 43.9849 158.279 44.8869 154.48 45.9489C154.316 39.0529 154.12 32.1569 153.853 25.2619C153.824 24.5149 152.493 24.5099 152.478 25.2619C152.336 32.3689 152.289 39.4769 152.297 46.5849C149.226 47.4989 146.197 48.5139 143.222 49.6439C136.689 52.1259 130.621 55.1979 125.085 58.8259C125.596 51.3909 126.305 43.9649 127.273 36.5589C127.5 34.8209 124.298 34.8429 124.064 36.5589C122.944 44.7749 122.138 53.0109 121.578 61.2569C116.179 65.1989 111.346 69.7089 107.172 74.7759C105.348 76.9899 103.666 79.2729 102.082 81.6039C103.278 66.1849 104.434 50.7709 105.372 35.3369C105.492 33.3599 101.966 33.4059 101.77 35.3369C99.911 53.5919 98.213 71.8659 96.774 90.1529C86.615 107.914 79.788 127.276 63.14 141.642C63.222 137.337 63.333 133.028 63.343 128.723C63.454 127.647 63.611 126.574 63.759 125.503C64.222 122.154 65.078 118.707 64.553 115.354C64.214 113.186 62.311 107.868 64.133 105.94C64.826 105.207 64.364 105.459 65.326 105.992C65.956 106.341 66.469 106.714 67.025 107.16C67.26 107.349 68.078 107.28 68.206 107.431C69.127 108.515 67.769 110.074 67.185 110.985C66.764 111.643 67.633 112.475 68.439 112.047C69.926 111.257 70.682 110.056 70.717 108.547C70.733 107.848 70.233 107.137 70.225 106.45C70.221 106.125 70.603 105.821 70.544 105.451C70.4 104.543 69.95 103.505 69.531 102.659C67.121 97.7879 59.81 98.7299 57.224 102.95C55.028 106.533 55.691 111.189 56.967 115.301C56.762 118.371 56.914 121.498 56.859 124.495C56.77 129.384 56.92 134.276 56.997 139.165C57.034 141.54 57.073 143.915 57.112 146.29C54.665 147.923 51.979 149.348 49.094 150.113C47.253 150.601 45.286 150.772 43.316 150.791V145.89H39.442V85.8199H37.384V77.396C37.474 77.39 37.564 77.3829 37.653 77.3749C37.523 76.7859 37.437 76.1919 37.384 75.5969V74.0619C37.367 74.0529 37.35 74.0449 37.334 74.0369C37.339 73.8219 37.34 73.6079 37.355 73.3929C37.774 73.8839 38.204 74.3689 38.657 74.8419C39.157 75.3659 39.688 75.8869 40.384 76.2599C41.214 76.7049 42.258 76.9139 43.267 76.8359C43.432 76.8229 43.609 76.7979 43.719 76.7039C43.801 76.6329 43.83 76.5369 43.856 76.4439C44.149 75.3929 44.361 74.3289 44.496 73.2589C45.423 73.2729 46.306 73.0609 46.974 72.5399C47.073 72.4629 47.086 72.3939 47.037 72.3309C47.274 69.6849 40.814 43.6589 37.805 43.0959C35.69 42.6999 32.195 49.3859 30.319 50.3009C29.811 48.5019 29.341 46.6969 28.918 44.8849C26.668 46.2609 24.84 48.0179 23.533 49.9769C22.225 48.0179 20.398 46.2609 18.148 44.8849C17.725 46.6969 17.255 48.5019 16.747 50.3009C14.871 49.3869 11.377 42.6999 9.26095 43.0959C6.24995 43.6599 -0.210045 69.6849 0.0279554 72.3319C-0.0210446 72.3949 -0.00804465 72.4639 0.0909554 72.5409C0.758955 73.0619 1.64196 73.2739 2.56896 73.2599C2.70396 74.3299 2.91596 75.3939 3.20896 76.4449C3.23496 76.5369 3.26396 76.6339 3.34596 76.7049C3.45596 76.7989 3.63396 76.8249 3.79796 76.8369C4.80796 76.9149 5.85096 76.7069 6.68096 76.2609C7.37596 75.8879 7.90796 75.3659 8.40796 74.8429C8.85996 74.3699 9.28996 73.8849 9.70996 73.3939C9.80096 74.7239 9.70096 76.0619 9.41096 77.3759C9.59296 77.3909 9.77895 77.4049 9.96595 77.4149V85.8209H7.90796V119.312C9.24796 120.638 12.585 122.615 12.585 122.615L15.676 124.342L14.37 127.12L9.63095 131.587L8.80196 133.522L12.22 134.824L11.262 138.647L11.624 146.651L12.304 155.547C12.304 155.547 16.148 168.067 21.271 172.754C17.361 174.925 9.53996 179.266 9.53996 179.266L8.27896 180.574L8.74596 181.857C8.74596 181.857 8.61096 183.808 7.90796 184.685V274.794H39.44V268.937C81.536 268.908 123.632 268.888 165.728 268.698C172.925 268.665 180.11 268.303 187.307 268.246C194.295 268.19 201.384 268.43 208.335 267.782C208.991 268.395 210.342 268.175 210.48 267.107C212.617 250.548 211.634 233.961 210.755 217.345C209.886 200.919 208.512 184.51 207.051 168.113ZM203.045 197.885C196.385 197.257 189.692 196.893 182.988 196.757C186.293 195.606 188.628 192.855 188.628 189.647C188.628 185.808 185.281 182.626 180.929 182.059C187.807 181.497 194.679 180.887 201.509 180.079C202.047 186.013 202.566 191.948 203.045 197.885ZM172.559 189.647C172.559 186.387 175.693 183.734 179.545 183.734C183.397 183.734 186.531 186.387 186.531 189.647C186.531 192.907 183.397 195.56 179.545 195.56C175.693 195.56 172.559 192.907 172.559 189.647ZM175.911 196.688C170.259 196.706 164.604 196.887 158.96 197.197C158.871 192.781 158.784 188.364 158.692 183.948C159.814 183.843 160.936 183.735 162.058 183.632C166.854 183.192 171.666 182.808 176.479 182.421C172.977 183.489 170.463 186.321 170.463 189.648C170.463 192.792 172.708 195.498 175.911 196.688ZM195.115 113.361C196.871 132.611 198.865 151.843 200.679 171.088C195.752 171.626 191.05 171.95 186.186 170.516C180.09 168.718 175.933 164.86 172.489 160.378C165.628 151.451 161.827 141.282 161.009 130.677C160.591 125.25 160.718 119.805 160.976 114.375C161.198 109.691 160.326 103.189 164.78 99.6969C169.414 96.0639 176.202 96.9159 180.467 100.44C181.872 101.601 185.03 104.663 184.176 106.549C183.254 108.585 177.894 110.373 175.935 109.14C173.54 107.634 170.34 111.104 172.721 112.666C177.325 115.686 182.379 113.824 186.362 110.847C190.943 107.421 189.497 103.472 186.04 99.7459C183.989 97.5349 181.173 95.8929 178.1 94.9579C183.71 93.0979 188.926 90.1119 190.846 85.4669C191.583 83.6839 192.04 81.7189 192.335 79.7309C193.148 90.9479 194.093 102.157 195.115 113.361ZM162.327 49.5379C166.988 48.4689 171.723 47.6309 176.492 46.9919C181.074 46.3779 185.922 46.4039 190.368 45.3069C190.613 51.5799 190.925 57.8499 191.295 64.1189C191.313 64.4189 191.335 64.7199 191.353 65.0199C190.93 64.0899 190.408 63.1859 189.771 62.3149C187.698 59.4819 184.494 55.8659 180.995 54.2409C177.759 52.7389 173.179 53.0299 169.771 53.9079C163.062 55.6359 154.19 62.681 158.474 69.16C159.564 70.809 161.384 71.9089 163.186 72.9569C165.028 74.0279 167.093 75.5019 169.399 75.6909C174.661 76.1249 176.336 71.3819 176.566 67.9019C176.757 65.0059 171.5 65.0379 171.261 67.9019C171.164 69.0649 171.437 69.9989 169.909 70.3839C168.652 70.6999 168.469 70.358 167.449 69.785C166.21 69.088 164.443 68.3829 163.515 67.3509C160.838 64.3739 165.753 60.4169 168.545 59.0189C171.167 57.7049 174.815 56.6979 177.884 57.3149C181.166 57.9749 184.796 62.1509 186.465 64.5059C190.206 69.7829 189.289 77.5759 187.691 83.3559C186.006 89.4489 178.53 91.962 171.973 94.077C167.658 94.133 163.46 95.6479 160.618 98.9929C156.979 103.274 157.625 109.381 157.434 114.376C157.205 120.347 157.14 126.338 157.777 132.294C158.994 143.666 162.66 154.258 170.664 163.579C177.088 171.059 189.919 177.501 200.89 173.303C200.96 174.05 201.029 174.797 201.098 175.544C189.645 176.163 178.195 177.453 166.792 178.508C164.056 178.761 161.32 179.018 158.585 179.278C158.536 177.102 158.492 174.925 158.435 172.749C157.611 141.278 155.84 109.838 155.152 78.3639C154.957 69.4279 154.802 60.4919 154.609 51.5569C157.152 50.8119 159.725 50.1349 162.327 49.5379ZM135.532 192.604C135.532 189.344 138.666 186.691 142.518 186.691C146.37 186.691 149.504 189.344 149.504 192.604C149.504 195.305 147.351 197.583 144.423 198.288C143.681 198.358 142.94 198.429 142.199 198.503C138.496 198.361 135.532 195.773 135.532 192.604ZM137.496 199.003C134.864 199.298 132.238 199.616 129.62 199.959C129.332 195.624 129.04 191.29 128.744 186.956C131.798 186.629 134.853 186.307 137.908 185.992C135.236 187.332 133.436 189.79 133.436 192.603C133.436 195.271 135.052 197.624 137.496 199.003ZM151.6 192.604C151.6 189.147 148.888 186.216 145.171 185.253C148.444 184.926 151.719 184.607 154.995 184.295C155.198 188.661 155.407 193.028 155.62 197.395C153.449 197.535 151.28 197.694 149.113 197.872C150.65 196.495 151.6 194.643 151.6 192.604ZM124.652 66.0259C128.276 63.2599 132.252 60.7349 136.672 58.5149C141.654 56.0129 146.901 53.9449 152.315 52.2439C152.432 74.7159 153.042 97.1889 153.107 119.661C153.164 139.683 153.876 159.663 154.78 179.645C146.845 180.411 138.914 181.208 130.992 182.062C130.135 182.154 129.283 182.257 128.427 182.351C128.303 180.557 128.181 178.764 128.055 176.97C127.385 167.455 126.723 157.935 126.136 148.411C129.076 148.489 132.026 148.927 134.89 149.444C135.573 151.79 136.74 153.972 139.369 155.243C141.013 156.038 143.346 156.537 143.191 158.574C143.042 160.528 140.383 160.837 138.601 161.092C135.808 161.492 136.299 164.841 138.601 165.475C143.934 166.944 149.04 162.661 148.775 158.198C148.65 156.091 147.442 154.064 145.487 152.754C144.312 151.966 142.59 151.762 141.51 150.929C140.279 149.98 140.022 148.251 139.701 146.949C139.524 146.231 138.688 145.52 137.838 145.372C134.087 144.721 129.935 144.105 125.876 144.12C124.761 125.256 123.982 106.377 124.064 87.4919C124.094 80.3329 124.288 73.1759 124.652 66.0259ZM120.861 195.56C120.861 192.345 118.515 189.589 115.198 188.443C118.56 188.064 121.924 187.69 125.288 187.325C125.586 191.691 125.882 196.057 126.177 200.422C123.19 200.83 120.206 201.257 117.226 201.697C119.428 200.293 120.861 198.068 120.861 195.56ZM111.779 201.473C107.927 201.473 104.793 198.82 104.793 195.56C104.793 192.3 107.927 189.647 111.779 189.647C115.631 189.647 118.765 192.3 118.765 195.56C118.765 198.82 115.631 201.473 111.779 201.473ZM101.245 92.7309C106.805 84.0679 113.046 75.8549 121.125 68.8989C120.187 87.8549 120.501 106.858 121.455 125.817C121.765 131.977 122.114 138.137 122.481 144.296C118.973 144.665 115.646 145.66 112.843 147.694C109.043 150.452 107.548 156.025 101.837 156.296C100.496 156.359 99.193 156.305 97.908 156.202C98.661 135.04 99.705 113.884 101.245 92.7309ZM97.791 159.626C98.393 159.686 99.004 159.744 99.628 159.796C104.172 160.173 107.937 158.991 110.768 155.928C114.107 152.315 116.367 149.161 122.205 148.545C122.379 148.527 122.555 148.522 122.73 148.507C123.428 159.92 124.198 171.331 124.976 182.741C115.605 183.814 106.288 185.024 97.004 186.378C97.226 177.46 97.487 168.543 97.791 159.626ZM96.903 190.568C100.024 190.195 103.146 189.827 106.268 189.465C104.102 190.871 102.697 193.077 102.697 195.561C102.697 199.024 105.417 201.957 109.143 202.915C104.955 203.558 100.77 204.211 96.584 204.86C96.683 200.095 96.789 195.331 96.903 190.568ZM96.521 207.812C106.48 206.456 116.437 205.052 126.407 203.833C126.669 207.744 126.927 211.655 127.179 215.566C127.518 220.83 127.881 226.092 128.248 231.354C127.849 231.489 127.445 231.614 127.03 231.72C123.544 232.604 121.195 231.29 118.117 230.118C115.822 229.244 113.567 229.129 111.103 229.532C105.819 230.398 100.887 232.173 96.025 234.143C96.181 225.364 96.343 216.587 96.521 207.812ZM62.63 203.712C62.636 200.768 62.649 197.824 62.659 194.88C66.588 194.328 70.523 193.809 74.462 193.311C71.34 194.529 69.163 197.195 69.163 200.29C69.163 204.038 72.351 207.164 76.552 207.838C71.917 208.482 67.273 209.08 62.617 209.613C62.622 207.646 62.626 205.679 62.63 203.712ZM78.245 194.378C82.097 194.378 85.231 197.031 85.231 200.291C85.231 203.551 82.097 206.204 78.245 206.204C74.393 206.204 71.259 203.551 71.259 200.291C71.259 197.03 74.393 194.378 78.245 194.378ZM62.613 211.873C72.378 210.961 82.123 209.745 91.863 208.441C91.843 210.577 91.821 212.713 91.806 214.849C91.756 221.873 91.73 228.897 91.725 235.92C86.26 238.207 80.782 240.481 74.891 241.727C70.87 242.577 66.776 243.035 62.661 243.348C62.618 240.3 62.559 237.255 62.566 234.225C62.581 226.775 62.597 219.324 62.613 211.873ZM57.581 210.16C56.958 210.224 56.335 210.293 55.711 210.354C54.599 210.463 53.485 210.56 52.372 210.66C55.287 209.379 57.287 206.804 57.287 203.838C57.287 200.506 54.764 197.67 51.253 196.606C51.589 196.55 51.925 196.492 52.261 196.438C54.032 196.153 55.806 195.881 57.58 195.616C57.583 200.464 57.584 205.312 57.581 210.16ZM48.205 209.752C44.353 209.752 41.219 207.099 41.219 203.839C41.219 200.579 44.353 197.926 48.205 197.926C52.057 197.926 55.191 200.579 55.191 203.839C55.191 207.099 52.057 209.752 48.205 209.752ZM39.441 157.717H43.315V153.261C46.197 153.236 48.991 152.878 51.545 152.014C53.498 151.353 55.368 150.535 57.164 149.595C57.273 156.29 57.379 162.984 57.452 169.678C57.459 170.349 57.46 171.02 57.466 171.691C53.867 173.931 50.025 175.823 45.667 176.886C43.611 177.387 41.533 177.72 39.441 177.936V157.717ZM39.441 180.466C40.769 180.415 42.096 180.324 43.419 180.168C48.537 179.562 53.207 177.773 57.494 175.384C57.541 181.251 57.567 187.119 57.575 192.988C52.286 193.997 47.011 195.056 41.725 196.075C40.966 196.221 40.204 196.363 39.441 196.5V180.466ZM39.441 198.628C40.303 198.499 41.165 198.365 42.025 198.221C40.796 199.19 39.888 200.441 39.441 201.854V198.628ZM39.441 205.823C40.259 208.408 42.626 210.459 45.651 211.211C43.583 211.359 41.512 211.487 39.441 211.597V205.823ZM39.441 213.348C45.499 213.169 51.544 212.808 57.581 212.314C57.577 218.053 57.576 223.792 57.588 229.531C57.598 234.218 57.455 238.952 57.397 243.69C55.308 243.809 53.218 243.917 51.134 244.048C47.829 244.254 44.524 244.455 41.219 244.661V238.135H39.441V213.348ZM58.528 264.673C52.165 264.667 45.803 264.661 39.44 264.655V249.96H41.218V246.248C46.609 246.249 52 246.219 57.376 246.042C57.346 252.117 57.521 258.185 58.411 264.151C58.44 264.347 58.504 264.518 58.586 264.672C58.567 264.673 58.547 264.673 58.528 264.673ZM61.576 264.675C61.658 264.521 61.722 264.349 61.752 264.152C62.655 258.096 62.748 251.954 62.69 245.815C67.915 245.532 73.157 245.007 78.216 243.836C82.904 242.751 87.35 241.023 91.721 239.238C91.727 247.722 91.779 256.205 91.896 264.689C81.788 264.684 71.682 264.683 61.576 264.675ZM91.888 205.584C88.844 206.051 85.799 206.51 82.751 206.956C85.481 205.629 87.328 203.141 87.328 200.291C87.328 196.409 83.908 193.199 79.486 192.684C82.518 192.31 85.551 191.942 88.586 191.571C89.748 191.429 90.911 191.291 92.073 191.15C91.997 195.961 91.936 200.772 91.888 205.584ZM92.144 187.105C82.301 188.594 72.485 190.236 62.668 192.038C62.694 185.388 62.731 178.739 62.783 172.09C69.512 167.536 75.803 162.289 84.078 159.943C87.171 159.066 89.977 158.989 92.832 159.17C92.526 168.48 92.308 177.792 92.144 187.105ZM92.956 155.714C90.769 155.526 88.558 155.462 86.219 155.879C76.983 157.527 69.853 163.04 62.819 168.064C62.883 160.671 62.964 153.278 63.07 145.884C71.408 139.739 77.828 131.057 82.803 123.375C87.421 116.246 91.571 108.772 95.918 101.418C95.346 109.293 94.823 117.17 94.364 125.049C93.77 135.268 93.316 145.49 92.956 155.714ZM95.467 264.689C95.642 255.621 95.804 246.554 95.965 237.489C100.08 235.792 104.224 234.137 108.597 232.967C111.713 232.134 114.347 231.627 117.404 232.871C119.251 233.623 120.915 234.483 122.978 234.723C124.892 234.946 126.712 234.695 128.446 234.177C129.16 244.362 129.876 254.547 130.473 264.738C118.805 264.706 107.136 264.693 95.467 264.689ZM129.849 203.421C138.483 202.406 147.128 201.551 155.796 201.013C156.009 205.352 156.224 209.691 156.435 214.032C156.555 216.496 156.69 218.961 156.833 221.426C151.819 220.395 146.538 221.55 142.044 223.497C138.286 225.126 135.167 227.87 131.606 229.84C131.013 221.034 130.433 212.227 129.849 203.421ZM134.108 264.745C133.288 254.112 132.531 243.475 131.809 232.836C132.87 232.32 133.896 231.749 134.888 231.175C139.088 228.745 142.97 226.167 148.023 225.113C150.974 224.498 154.232 224.364 157.074 225.425C157.875 238.537 158.846 251.655 159.321 264.761C150.915 264.705 142.501 264.768 134.108 264.745ZM190.092 265.364C183.818 265.314 177.567 265.114 171.297 264.947C167.879 264.856 164.456 264.804 161.032 264.774C160.258 252.178 160.084 239.519 159.747 226.893C161.363 228.079 162.671 229.596 163.925 231.031C165.651 233.006 167.597 235.095 168.316 237.518C168.788 239.108 168.173 242.293 165.91 242.733C165.185 241.938 163.687 241.888 162.848 242.592C162.519 242.868 162.189 243.145 161.86 243.422C160.363 244.678 160.843 247.509 163.225 247.799C167.905 248.368 171.893 246.166 173.481 242.368C175.305 238.005 172.689 233.787 169.565 230.386C166.75 227.32 163.773 223.994 159.61 222.277C159.586 221.494 159.565 220.712 159.539 219.93C159.323 213.564 159.174 207.196 159.039 200.829C159.281 200.816 159.522 200.8 159.763 200.787C174.267 200.055 188.75 200.897 203.251 200.538C203.526 204.034 203.795 207.53 204.041 211.028C205.325 229.276 205.552 247.59 207.824 265.763C201.947 265.257 195.999 265.411 190.092 265.364Z" fill="#A13E3E"/>
</svg>
