<svg width="212" height="276" viewBox="0 0 212 276" fill="none" xmlns="http://www.w3.org/2000/svg">
<path d="M211.972 72.6969C212.209 70.0509 205.749 44.0249 202.74 43.4619C200.625 43.0659 197.13 49.7519 195.254 50.6669C194.746 48.8679 194.276 47.0629 193.853 45.2509C191.603 46.6279 189.775 48.3849 188.468 50.3439C187.16 48.3849 185.333 46.6279 183.083 45.2509C182.66 47.0629 182.19 48.8679 181.682 50.6669C179.806 49.7519 176.312 43.0659 174.196 43.4619C171.187 44.0249 164.727 70.0509 164.964 72.6969C164.915 72.7599 164.928 72.8289 165.027 72.9069C165.695 73.4279 166.578 73.6399 167.505 73.6259C167.64 74.6959 167.852 75.7599 168.145 76.8109C168.171 76.9029 168.2 76.9999 168.282 77.0709C168.392 77.1649 168.57 77.1909 168.734 77.2029C169.744 77.2809 170.788 77.0729 171.617 76.6269C172.312 76.2539 172.843 75.7329 173.344 75.2089C173.796 74.7359 174.227 74.2509 174.646 73.7599C174.661 73.9739 174.662 74.1889 174.667 74.4039C174.65 74.4129 174.633 74.4209 174.617 74.4299V75.9649C174.564 76.5609 174.478 77.1539 174.348 77.7429C174.437 77.7499 174.527 77.7569 174.617 77.7639V86.1869H172.559V146.257H168.685V151.799C166.982 151.578 165.292 151.233 163.639 150.743C160.479 149.807 157.581 148.371 154.902 146.651C154.914 145.843 154.921 145.035 154.933 144.226C155.018 138.556 155.217 132.879 155.184 127.209C155.161 123.334 155.42 119.192 155.044 115.2C156.271 111.207 156.99 106.934 154.777 103.317C152.341 99.3369 145.167 98.0209 142.632 102.702C141.564 104.674 141.416 106.7 141.305 108.782C141.223 110.326 142.051 111.612 143.562 112.414C144.367 112.842 145.238 112.01 144.816 111.352C144.251 110.469 143.54 109.718 143.748 108.671C144.061 107.087 144.03 108.292 144.977 107.528C145.519 107.091 146.026 106.673 146.676 106.36C147.665 105.882 147.083 105.477 147.869 106.308C149.695 108.239 147.791 113.535 147.449 115.722C146.924 119.076 147.791 122.52 148.243 125.871C148.397 127.013 148.564 128.156 148.676 129.302C148.695 132.712 148.78 136.123 148.833 139.532C148.846 140.38 148.86 141.227 148.874 142.074C147.434 140.816 146.066 139.512 144.765 138.209C135.33 128.765 129.167 117.45 123.364 106.208C120.674 100.996 118.055 95.7319 115.162 90.5919C115.052 89.1949 114.949 87.7969 114.835 86.3999C113.45 69.4879 111.953 52.5939 110.233 35.7039C110.037 33.7759 106.51 33.7239 106.631 35.7039C107.571 51.1669 108.781 66.6169 109.956 82.0679C108.116 79.3249 106.134 76.6499 103.942 74.0759C99.9848 69.4299 95.4558 65.2689 90.4328 61.6029C89.8688 53.3609 89.0578 45.1309 87.9388 36.9259C87.7048 35.2119 84.5018 35.1849 84.7298 36.9259C85.6968 44.3249 86.4088 51.7389 86.9118 59.1599C81.9488 55.9119 76.5528 53.1149 70.7758 50.7909C67.1648 49.3379 63.4608 48.0609 59.6918 46.9399C59.7068 39.8369 59.6658 32.7339 59.5238 25.6289C59.5088 24.8789 58.1778 24.8799 58.1488 25.6289C57.8818 32.5229 57.6848 39.4189 57.5138 46.3149C54.0678 45.3529 50.5728 44.5159 47.0398 43.8149C42.6978 42.9529 38.3058 42.2849 33.8878 41.7689C29.8538 41.2979 25.8448 40.7419 21.8088 41.2129C21.8348 40.6319 21.8618 40.0499 21.8898 39.4679C22.7118 36.5199 22.4048 33.4069 22.4648 30.3839C22.5458 26.3159 22.9428 22.2709 23.1088 18.2119C23.1878 16.2829 23.1548 14.3459 22.9688 12.4239C22.8868 11.5809 22.1658 9.23989 22.7538 8.61489C23.2458 8.09089 25.3468 7.79489 26.0978 7.37789C26.1438 7.35289 26.1858 7.32389 26.2308 7.29789C26.5268 7.35789 26.8328 7.40689 27.1618 7.43489C27.9138 7.49889 29.3218 7.14689 29.9928 7.32089C32.3028 7.92189 31.1368 10.1359 30.6638 11.4649C30.2548 12.6159 32.1428 13.1989 32.8788 12.2549C34.3598 10.3559 35.7018 8.16389 34.7278 5.84489C34.3788 5.01289 33.7448 4.30789 32.9258 3.76889C32.6818 3.60789 28.5468 2.00889 28.7228 2.58389C28.1988 0.861888 25.4168 -0.317112 23.5688 0.808888C20.8348 2.47389 17.2858 2.51889 15.4048 5.22389C13.3098 8.23589 14.2908 12.6069 14.4298 15.8949C14.6178 20.3449 14.7288 24.7719 14.7818 29.2259C14.8078 31.4549 14.7388 33.7929 15.0918 36.0419C15.0768 37.4539 15.0538 38.8619 15.0078 40.2639C14.7378 48.3409 14.3488 56.4159 13.8678 64.4859C12.8888 80.9159 11.5218 97.3269 10.0148 113.727C7.47183 141.399 1.88284 206.84 1.60184 211.393C0.447839 230.057 -0.88117 248.867 1.52083 267.474C1.65783 268.54 3.01083 268.763 3.66583 268.149C9.70983 268.709 15.8308 268.542 21.9088 268.591C28.1828 268.641 34.4338 268.841 40.7038 269.008C53.2138 269.342 65.7768 269.172 78.2938 269.21C103.353 269.287 128.414 269.258 153.473 269.282C159.835 269.288 166.196 269.294 172.557 269.3L172.56 275.161H204.092V254.84C201.581 253.329 198.695 249.027 198.695 249.027L196.843 245.612L195.209 244.889C195.209 244.889 195.966 243.003 197.192 242.664C196.649 242.361 196.2 241.939 195.897 241.452C199.684 238.323 203.818 229.918 203.818 229.918C203.818 229.918 204.001 229.543 204.092 229.355V212.623C201.928 210.399 197.069 206.358 197.069 206.358L196.392 205.626L196.513 204.199C196.513 204.199 196.079 203.12 195.555 203.308C196.446 202.356 198.228 200.45 198.228 200.45L199.328 198.969L199.565 197.126L194.395 175.564L194.531 172.196L195.639 171.66C195.639 171.66 195.832 168.81 194.555 167.716C196.03 168.007 198.159 165.902 198.159 165.902C198.159 165.902 198.75 163.401 198.703 162.12C200.542 162.673 202.429 162.232 204.092 161.319V86.1859H202.034V77.7809C202.22 77.7709 202.406 77.7569 202.589 77.7419C202.299 76.4279 202.2 75.0899 202.29 73.7599C202.709 74.2509 203.14 74.7359 203.592 75.2089C204.092 75.7329 204.623 76.2539 205.319 76.6269C206.149 77.0719 207.193 77.2809 208.203 77.2029C208.368 77.1899 208.545 77.1649 208.655 77.0709C208.737 76.9999 208.767 76.9039 208.792 76.8109C209.085 75.7599 209.297 74.6949 209.432 73.6259C210.359 73.6399 211.242 73.4279 211.91 72.9069C212.008 72.8289 212.021 72.7599 211.972 72.6969ZM154.862 149.847C158.271 151.723 161.984 153.158 166.023 153.839C166.907 153.988 167.796 154.097 168.686 154.177V158.082H172.56V178.309C170.677 178.115 168.805 177.825 166.952 177.399C162.377 176.347 158.381 174.427 154.625 172.106C154.682 164.686 154.763 157.267 154.862 149.847ZM154.595 175.796C158.859 178.161 163.499 179.929 168.581 180.532C169.904 180.689 171.231 180.78 172.559 180.831V197.027C166.881 196.042 161.255 194.642 155.855 193.614C155.404 193.528 154.953 193.443 154.503 193.357C154.525 187.503 154.554 181.65 154.595 175.796ZM172.559 206.188V210.863C171.466 210.681 170.372 210.499 169.278 210.319C170.856 209.3 172.031 207.856 172.559 206.188ZM166.057 209.793C163.803 209.427 161.547 209.067 159.29 208.716C157.775 207.631 156.809 206.012 156.809 204.204C156.809 200.944 159.943 198.291 163.795 198.291C167.647 198.291 170.781 200.944 170.781 204.204C170.781 206.794 168.801 208.995 166.057 209.793ZM170.219 198.775C170.999 198.9 171.779 199.019 172.56 199.129V202.219C172.142 200.899 171.328 199.715 170.219 198.775ZM154.467 204.077C154.473 201.376 154.485 198.676 154.494 195.976C156.489 196.286 158.512 196.651 160.555 197.031C157.145 198.139 154.713 200.932 154.713 204.204C154.713 205.677 155.214 207.049 156.066 208.219C155.531 208.138 154.995 208.059 154.459 207.979C154.462 206.679 154.465 205.378 154.467 204.077ZM149.415 212.326C149.413 218.183 149.412 224.04 149.425 229.896C149.435 234.477 149.299 239.104 149.238 243.734C147.052 243.559 144.872 243.345 142.709 243.052C134.666 241.96 127.506 239.183 120.34 236.346C120.36 227.211 120.317 218.075 120.222 208.941C120.417 208.955 120.612 208.966 120.807 208.981C130.397 209.696 139.929 210.93 149.415 212.326ZM126.768 200.656C126.768 197.396 129.902 194.743 133.754 194.743C137.606 194.743 140.74 197.396 140.74 200.656C140.74 202.772 139.416 204.626 137.437 205.671C134.523 205.322 131.604 205 128.681 204.709C127.499 203.649 126.768 202.225 126.768 200.656ZM149.415 207.245C146.364 206.812 143.31 206.401 140.251 206.017C141.848 204.631 142.836 202.741 142.836 200.657C142.836 197.353 140.356 194.538 136.893 193.453C141.076 194.011 145.249 194.605 149.415 195.221C149.419 199.228 149.417 203.237 149.415 207.245ZM115.854 215.215C115.955 221.704 116.031 228.193 116.107 234.682C112.624 233.329 109.1 232.034 105.431 230.984C102.991 230.286 100.34 229.532 97.7248 229.63C94.9478 229.734 92.8738 231.141 90.3688 231.939C87.9888 232.697 85.7488 232.449 83.6308 231.694C84.2448 222.55 84.8738 213.407 85.4998 204.264C91.0488 205.673 96.4188 207.103 102.242 207.73C106.725 208.213 111.235 208.413 115.74 208.662C115.778 210.846 115.82 213.03 115.854 215.215ZM91.1388 195.926C91.1388 197.935 92.0618 199.762 93.5588 201.133C91.9608 200.802 90.3648 200.425 88.7728 199.987C87.7868 199.716 86.8098 199.486 85.8378 199.274C86.1018 195.394 86.3698 191.514 86.6278 187.634C90.0888 188 93.5508 188.369 97.0158 188.742C93.5868 189.842 91.1388 192.643 91.1388 195.926ZM100.221 190.012C104.073 190.012 107.207 192.665 107.207 195.925C107.207 199.185 104.073 201.838 100.221 201.838C96.3688 201.838 93.2348 199.185 93.2348 195.925C93.2348 192.665 96.3688 190.012 100.221 190.012ZM115.652 203.662C111.871 203.407 108.11 203.146 104.369 202.756C107.295 201.478 109.303 198.899 109.303 195.926C109.303 193.344 107.787 191.061 105.474 189.666C108.776 190.031 112.077 190.404 115.378 190.787C115.478 195.079 115.569 199.37 115.652 203.662ZM91.4358 87.8569C91.3728 81.5989 91.1928 75.3419 90.8778 69.0899C94.6708 72.2319 98.1288 75.6859 101.193 79.4549C104.738 83.8169 107.862 88.4209 110.786 93.1389C111.58 103.893 112.323 114.649 112.908 125.413C113.471 135.771 113.936 146.134 114.33 156.499C113.15 156.6 111.95 156.67 110.712 156.657C104.594 156.592 103.381 151.272 99.5108 148.327C96.6138 146.122 93.1438 145.061 89.4778 144.676C90.6818 125.75 91.6258 106.816 91.4358 87.8569ZM89.2068 148.866C89.4028 148.883 89.5998 148.889 89.7958 148.91C95.6478 149.55 97.8848 152.669 101.233 156.293C104.079 159.373 107.807 160.524 112.373 160.161C113.085 160.104 113.78 160.039 114.463 159.971C114.786 168.842 115.05 177.715 115.273 186.589C105.861 185.234 96.4068 184.063 86.9328 183.014C87.0568 181.121 87.1838 179.228 87.3058 177.336C87.9148 167.847 88.5858 158.358 89.2068 148.866ZM57.7388 173.114C59.0488 141.665 58.9138 110.192 59.3658 78.7289C59.4908 70.0149 59.6158 61.3029 59.6688 52.5909C62.0118 53.3249 64.3268 54.1229 66.5938 55.0069C74.1798 57.9649 81.1418 61.7539 87.3248 66.3119C88.3298 86.2489 87.9468 106.237 87.0568 126.181C86.7838 132.288 86.4588 138.393 86.1108 144.497C82.0678 144.478 77.9278 145.082 74.1628 145.736C73.3118 145.884 72.4768 146.595 72.2998 147.313C72.0068 148.501 71.7768 149.959 70.8238 150.92C69.8348 151.918 68.0498 152.179 66.7938 152.935C64.6718 154.21 63.3558 156.375 63.2268 158.562C62.9618 163.025 68.0678 167.309 73.4008 165.839C75.7018 165.205 76.1978 161.856 73.4008 161.456C71.5448 161.19 69.0528 160.896 68.8108 158.938C68.5608 156.912 71.0558 156.378 72.6328 155.607C75.2528 154.325 76.4258 152.155 77.1108 149.808C79.9738 149.289 82.9288 148.845 85.8698 148.768C85.1978 160.065 84.4238 171.359 83.6188 182.65C74.8918 181.707 66.1518 180.848 57.4158 180.018C57.5258 177.718 57.6428 175.416 57.7388 173.114ZM62.3298 197.69C60.3898 197.559 58.4578 197.386 56.5248 197.191C56.7568 193.019 56.9858 188.848 57.1978 184.675C60.4258 184.979 63.6528 185.29 66.8788 185.607C63.1358 186.557 60.3988 189.496 60.3988 192.969C60.3998 194.749 61.1248 196.386 62.3298 197.69ZM69.4818 187.056C73.3338 187.056 76.4678 189.709 76.4678 192.969C76.4678 195.03 75.2138 196.846 73.3188 197.905C72.0608 197.882 70.7908 197.876 69.4898 197.899C68.1658 197.923 66.8548 197.898 65.5488 197.853C63.7068 196.787 62.4948 194.996 62.4948 192.969C62.4948 189.709 65.6288 187.056 69.4818 187.056ZM78.5638 192.969C78.5638 190.13 76.7308 187.651 74.0188 186.32C76.3498 186.557 78.6798 186.794 81.0088 187.04C81.7678 187.12 82.5278 187.201 83.2858 187.281C83.0138 191.071 82.7388 194.861 82.4648 198.651C80.4258 198.337 78.3868 198.129 76.3178 198.013C77.7118 196.662 78.5638 194.9 78.5638 192.969ZM11.5538 168.479C14.3648 138.843 17.5558 109.233 19.7008 79.5559C19.8438 80.4929 20.0098 81.4319 20.1888 82.3709C20.9258 86.2359 22.6568 89.6279 26.5648 91.9029C28.8148 93.2119 31.3408 94.3289 33.9708 95.2359C32.2118 95.7359 30.5338 96.4829 29.0398 97.4799C25.0158 100.166 20.0158 105.947 24.1748 110.004C27.9778 113.713 34.1968 116.367 39.2798 113.033C41.6348 111.488 38.4868 107.984 36.0658 109.507C34.1068 110.739 28.7468 108.952 27.8248 106.916C26.9638 105.016 30.1598 101.942 31.5338 100.807C35.7758 97.3019 42.6138 96.4039 47.2208 100.064C51.6558 103.586 50.7998 110.02 51.0248 114.742C51.2838 120.172 51.4098 125.617 50.9918 131.044C50.1748 141.643 46.3798 151.826 39.5118 160.745C36.0598 165.229 31.9238 169.081 25.8148 170.882C20.9498 172.317 16.2168 171.989 11.2818 171.45C11.3728 170.459 11.4598 169.468 11.5538 168.479ZM11.0788 173.646C20.3348 177.095 32.2708 172.996 38.5468 166.934C47.0718 158.7 51.8748 148.23 53.5678 137.478C54.5288 131.371 54.8138 125.252 54.6968 119.096C54.5968 113.806 55.2388 107.557 53.2248 102.479C51.2048 97.3859 45.8588 94.7319 40.2008 94.5029C33.7938 92.4499 26.2128 89.9819 24.4378 84.1519C22.6628 78.3209 21.7468 70.2169 25.5348 64.8719C27.0998 62.6639 30.5448 58.6559 33.5388 57.7689C36.4718 56.8999 40.4498 57.9709 43.0268 59.1699C45.8948 60.5039 50.3798 63.9009 48.8618 66.9779C48.1618 68.3959 46.5118 69.0469 45.0478 69.8679C44.5468 70.1489 43.6478 70.9109 43.0648 70.9969C40.6468 71.3519 40.8448 69.5209 40.7398 68.2679C40.5008 65.4089 35.2428 65.3669 35.4348 68.2679C35.6438 71.4279 36.6818 75.2539 41.0018 75.9869C44.6128 76.5999 48.7358 73.6329 51.2828 71.7719C58.6098 66.4179 52.0158 58.1379 45.1418 55.2709C41.7538 53.8579 37.8308 53.2599 34.0838 53.7909C29.7168 54.4099 26.8148 57.5699 24.1928 60.3569C22.5458 62.1079 21.4008 63.9529 20.6168 65.8639C21.0228 59.1359 21.3628 52.4059 21.6258 45.6729C25.1868 46.5429 28.9468 46.5779 32.6198 46.9989C36.5288 47.4469 40.4178 48.0409 44.2668 48.7729C48.6898 49.6139 53.0788 50.6459 57.3748 51.8979C56.8618 74.6089 56.6078 97.3259 55.5378 120.026C54.5998 139.903 54.1098 159.781 53.6148 179.661C52.3898 179.546 51.1648 179.429 49.9408 179.314C36.9588 178.094 23.9118 176.604 10.8698 175.907C10.9398 175.153 11.0088 174.4 11.0788 173.646ZM41.5368 190.012C41.5368 186.628 38.9368 183.754 35.3408 182.73C38.4078 182.978 41.4728 183.23 44.5318 183.506C47.5208 183.775 50.5098 184.048 53.4978 184.326C53.3928 188.499 53.2838 192.672 53.1718 196.844C51.6468 196.684 50.1178 196.526 48.5758 196.385C45.2328 196.08 41.8758 195.867 38.5128 195.722C40.3648 194.314 41.5368 192.279 41.5368 190.012ZM34.7578 195.588C33.1248 195.543 31.4918 195.513 29.8588 195.497C27.2888 194.623 25.4678 192.496 25.4678 190.012C25.4678 186.752 28.6018 184.099 32.4538 184.099C36.3058 184.099 39.4398 186.752 39.4398 190.012C39.4408 192.589 37.4808 194.78 34.7578 195.588ZM10.4538 180.441C17.3558 181.254 24.3038 181.841 31.2528 182.401C26.8128 182.902 23.3728 186.12 23.3728 190.013C23.3728 192.153 24.4128 194.09 26.0858 195.485C25.7798 195.486 25.4738 195.484 25.1678 195.486C19.8998 195.515 14.4638 195.494 9.14084 195.938C9.55884 190.771 9.99383 185.605 10.4538 180.441ZM52.4178 222.705C49.8698 223.762 47.6728 225.4 45.6858 227.387C41.9328 231.14 37.0988 235.616 38.0008 240.942C38.7818 245.552 43.2898 248.831 48.7728 248.165C51.1558 247.875 51.6348 245.044 50.1378 243.788C49.8088 243.511 49.4788 243.235 49.1498 242.958C48.3228 242.264 46.8548 242.302 46.1188 243.064C44.5358 242.671 43.5518 240.818 43.4628 239.556C43.2908 237.137 45.1668 234.846 46.7368 232.952C48.4288 230.91 50.1588 228.863 52.3008 227.355C51.9978 239.989 51.7488 252.644 50.9628 265.239C49.3988 265.246 47.8348 265.248 46.2708 265.255C39.0738 265.288 31.8888 265.65 24.6918 265.707C17.8738 265.761 10.9608 265.538 4.17383 266.128C6.17783 250.036 6.41683 233.87 7.51283 217.711C7.95283 211.224 8.43484 204.739 8.95084 198.256C13.2338 198.433 17.5548 198.356 21.8078 198.434C28.9868 198.566 36.2148 198.827 43.3308 199.682C46.5838 200.073 49.8158 200.597 53.0548 201.084C52.9308 205.521 52.8018 209.958 52.6558 214.395C52.5658 217.164 52.4898 219.934 52.4178 222.705ZM77.8898 265.146C69.4858 265.169 61.0818 265.198 52.6778 265.233C53.1598 252.124 54.2148 239.005 54.9708 225.893C56.2888 225.364 57.7548 225.035 59.4358 225.001C64.5408 224.897 69.4468 226.943 73.5178 229.373C75.6268 230.632 77.7708 232.063 80.0728 233.193C79.3828 243.846 78.7008 254.499 77.8898 265.146ZM80.2748 230.086C77.9048 228.7 75.6908 226.971 73.6008 225.728C69.3628 223.208 64.1848 221.359 58.9348 221.407C57.6088 221.419 56.3658 221.569 55.1908 221.831C55.2178 221.319 55.2488 220.807 55.2738 220.294C55.5848 214.044 55.9338 207.796 56.2828 201.548C58.4368 201.842 60.5968 202.099 62.7728 202.26C69.3098 202.744 75.7278 202.176 82.1198 203.457C81.8198 207.615 81.5208 211.773 81.2278 215.931C80.8948 220.648 80.5818 225.367 80.2748 230.086ZM81.5248 265.134C82.1138 254.932 82.7608 244.732 83.4398 234.532C84.1378 234.74 84.8508 234.911 85.5848 235.025C87.3948 235.306 89.2188 235.189 90.9548 234.694C93.4538 233.981 95.5388 232.42 98.2728 232.392C103.796 232.336 110.005 235.391 114.834 237.359C115.272 237.538 115.708 237.714 116.145 237.891C116.251 246.95 116.364 256.01 116.535 265.069C104.865 265.083 93.1948 265.103 81.5248 265.134ZM116.018 101.966C124.306 116.405 132.017 131.169 145.118 142.822C146.334 143.903 147.608 144.958 148.937 145.966C149.059 153.477 149.18 160.988 149.268 168.499C142.184 163.454 135.076 157.903 125.78 156.244C123.401 155.82 121.173 155.873 118.965 156.054C118.276 138.015 117.305 119.984 116.018 101.966ZM119.092 159.545C121.966 159.355 124.787 159.419 127.922 160.308C136.234 162.664 142.544 167.949 149.307 172.517C149.371 179.141 149.399 185.766 149.41 192.392C139.87 190.591 130.316 188.845 120.696 187.379C120.429 187.338 120.161 187.303 119.893 187.262C119.697 178.022 119.426 168.783 119.092 159.545ZM133.328 192.987C128.519 193.178 124.673 196.539 124.673 200.656C124.673 202.029 125.105 203.316 125.853 204.432C123.952 204.256 122.058 204.11 120.168 203.974C120.114 199.758 120.05 195.542 119.969 191.326C124.427 191.856 128.881 192.409 133.328 192.987ZM120.107 265.061C120.226 256.559 120.301 248.056 120.331 239.554C128.179 242.598 135.921 245.075 144.824 245.868C146.284 245.998 147.749 246.104 149.215 246.196C149.18 252.342 149.349 258.481 150.248 264.516C150.277 264.71 150.34 264.88 150.421 265.032C140.316 265.041 130.212 265.049 120.107 265.061ZM153.418 265.031C153.498 264.879 153.561 264.711 153.589 264.517C154.478 258.553 154.581 252.506 154.529 246.461C159.931 246.661 165.359 246.678 170.782 246.657V250.326H172.546L172.554 265.016C166.175 265.02 159.796 265.026 153.418 265.031ZM172.528 218.986L172.539 238.499H170.782V245.026C168.605 244.891 166.427 244.759 164.249 244.623C161.013 244.42 157.756 244.275 154.503 244.089C154.46 240.915 154.396 237.744 154.403 234.589C154.418 227.418 154.433 220.248 154.449 213.077C154.54 213.091 154.631 213.104 154.722 213.118C163.805 214.503 172.856 216.03 181.904 217.57C179.308 218.346 178.09 219.224 172.528 218.986Z" fill="#A13E3E"/>
</svg>
